<?xml version="1.0" encoding="UTF-8"?>
<svg version="1.1" viewBox="0 0 1568 1600" width="1280" height="1280" xmlns="http://www.w3.org/2000/svg">
<path transform="translate(674 45.9)" d="m0 0c0.657-9.57e-4 1.31-0.00191 1.99-0.0029 1.39-6.82e-4 2.79 0.00117 4.18 0.00534 2.13 0.00533 4.26 6.39e-5 6.39-0.00635 1.35 6.61e-4 2.71 0.00194 4.06 0.00391 1.23 0.00113 2.47 0.00226 3.74 0.00342 3.08 0.129 3.08 0.129 6.08 1.13 1.49 0.266 2.99 0.502 4.49 0.719 0.87 0.128 1.74 0.255 2.64 0.387 0.906 0.13 1.81 0.26 2.75 0.395 1.79 0.259 3.58 0.52 5.37 0.781 1.19 0.171 1.19 0.171 2.4 0.346 3.56 0.564 6.93 1.23 10.4 2.37 1.41 0.339 2.82 0.662 4.23 0.973 0.802 0.177 1.6 0.354 2.43 0.537 0.833 0.182 1.67 0.365 2.53 0.553 0.845 0.186 1.69 0.373 2.56 0.564 2.08 0.459 4.17 0.916 6.25 1.37v2c1.61 0.0947 1.61 0.0947 3.26 0.191 5.97 0.757 11.2 3.28 16.6 5.75 1.66 0.743 1.66 0.743 3.34 1.5 15.2 6.9 28.8 14.7 41.9 25.1 1.88 1.48 3.79 2.94 5.7 4.39 10.6 8.06 19.9 16.2 26.2 28.1v2c7.38 0.856 7.38 0.856 14.3-1.28 2.68-2.36 5.01-4.94 7.37-7.62 9.92-10.8 24.5-17 37.5-23.2 1.71-0.825 3.4-1.68 5.09-2.54 12-5.9 25-8.87 38-11.7 1.66-0.369 3.31-0.764 4.95-1.21 13.5-3.57 28.3-2.51 42.1-2.54 1.09-0.00402 1.09-0.00402 2.2-0.00812 23.9-0.0667 23.9-0.0667 30.5 2.13 1.89 0.375 3.79 0.727 5.69 1.06 1.49 0.265 1.49 0.265 3.01 0.535l2.3 0.402v2c0.835-0.309 0.835-0.309 1.69-0.625 3.07-0.499 4.46 0.357 7.31 1.62 3.7 1.31 7.42 2.57 11.2 3.6 7.33 2 14 5.08 20.8 8.4 1.19 0.577 2.37 1.15 3.59 1.75 13.9 6.81 26.7 14.2 38.3 24.5 3.3 2.93 6.78 5.62 10.3 8.32 12.3 9.65 21.8 19.7 30.9 32.4 0.49 0.69 0.981 1.38 1.49 2.09 20 28.6 30.5 62.2 35 96.6 0.328 2.53 0.328 2.53 2.51 4.35 1.86 0.284 1.86 0.284 4.01 0.211 0.83-0.00338 1.66-0.00676 2.51-0.0102 1.36-0.0202 1.36-0.0202 2.74-0.0408 0.944-0.0052 1.89-0.0104 2.86-0.0158 3.04-0.0178 6.08-0.0489 9.12-0.0819 12-0.113 24-0.157 36 0.371 0.924 0.0395 1.85 0.079 2.8 0.12 6.19 0.305 11 1.44 16.8 3.63 6.34 2.3 12.7 4.1 19.2 5.81 7.94 2.11 15.4 4.5 22.9 8 1.14 0.5 2.28 1 3.45 1.52 12.4 5.5 24.7 12 35.2 20.6 3.63 2.91 7.46 5.55 11.3 8.21 6.91 4.87 12.6 10.2 18 16.6 0.73 0.842 1.46 1.68 2.21 2.55 28.9 33.8 43.7 69.7 52.2 113 0.148 0.75 0.295 1.5 0.447 2.27 5.63 29.1 0.34 57.2-6.35 85.7-0.408 1.74-0.408 1.74-0.824 3.52-1.71 6.95-3.95 13.5-6.6 20.1-1.27 3.36-1.98 6.37-2.45 9.93-0.228 1.56-0.228 1.56-0.461 3.16-0.244 3.52-0.244 3.52 0.836 6.78 2.2 1.11 2.2 1.11 5 2 24.4 12.3 48.8 28.6 65 51 0.386 0.527 0.772 1.05 1.17 1.6 5.84 7.98 11.5 16.1 16.8 24.4l1.48 2.23c5.75 9.08 10.1 19 14.5 28.8 0.342 0.738 0.685 1.48 1.04 2.24 7.54 16.5 9.44 34.9 12 52.8 0.122 0.844 0.245 1.69 0.371 2.56 6.4 49.6-7.08 104-36.4 144-0.66 0.944-1.32 1.89-2 2.86-6.28 8.73-13.5 16.4-21 24.1-0.715 0.748-0.715 0.748-1.44 1.51-9.48 9.89-21.3 21.1-34.6 25.5-1.14 1.78-1.14 1.78-2 4-0.385 0.745-0.771 1.49-1.17 2.26-2.27 7.48 4.32 17.2 7.81 23.8 0.832 1.54 1.67 3.07 2.53 4.6 6.97 12.6 11 25.6 14.1 39.6 0.171 0.771 0.342 1.54 0.519 2.34 2.53 11.4 4.87 22.7 5.23 34.4 0.0356 1.11 0.0712 2.21 0.108 3.35 0.431 16.2 0.0771 31.8-3.11 47.6-0.215 1.11-0.43 2.21-0.652 3.36-6.63 33.3-18.9 64.1-40.3 90.6-0.443 0.557-0.886 1.11-1.34 1.69-26.8 33.6-68.6 64.1-112 70.7-0.927 0.0902-1.85 0.18-2.81 0.273-2.87 0.293-2.87 0.293-5.98 1.29-4.52 1.27-9 1.97-13.6 2.62-0.916 0.13-1.83 0.26-2.78 0.394-7.22 0.983-14.4 1.53-21.7 1.83-7.08 0.104-7.08 0.104-13 3.34-3.85 6.55-4.23 13.7-5 21.1-2.17 19.2-5.01 38.5-11.7 56.8l-1.3 3.66c-5.89 15.7-14.5 30.1-24.7 43.3-0.527 0.704-1.05 1.41-1.6 2.13-5.6 7.27-11.9 13.7-18.4 20.2-1.87 1.86-3.73 3.73-5.59 5.6-1.19 1.19-2.37 2.37-3.56 3.55-0.555 0.559-1.11 1.12-1.68 1.69-3.91 3.86-3.91 3.86-6.14 3.86v2c-2.09 1.8-4.18 3.47-6.38 5.12l-1.83 1.42c-4.54 3.46-4.54 3.46-6.8 3.46v2c-1.6 1.22-1.6 1.22-3.85 2.57-0.825 0.499-1.65 0.999-2.5 1.51-0.896 0.528-1.79 1.06-2.71 1.6-0.912 0.541-1.82 1.08-2.76 1.64-7.54 4.41-15.1 8.3-23.2 11.7-0.607 0.254-1.21 0.509-1.84 0.771-26.3 10.9-52.6 14.4-80.8 14.4-0.837-0.00155-1.67-0.0031-2.54-0.0047-35.8-0.0779-35.8-0.0779-52.9-5.62-1.34-0.428-2.67-0.855-4.01-1.28-0.965-0.308-0.965-0.308-1.95-0.623-1.88-0.585-3.77-1.13-5.67-1.67-13.8-3.94-27.4-10.4-39.1-18.5-3.53-2.27-7.25-3.88-11.2-5.39-1.3-0.526-1.3-0.526-2.62-1.06-4.08 0.107-6.62 2.28-9.38 5.06-1.8 2.55-3.4 5.18-5.01 7.85-10.4 16.4-24.4 29.8-40 41.1-1.49 1.1-1.49 1.1-3.01 2.21-2.65 1.94-5.32 3.87-7.99 5.79-0.522 0.396-1.04 0.791-1.58 1.2-4.36 3.25-8.84 5.63-13.8 7.86-0.75 0.346-1.5 0.692-2.27 1.05-2.11 0.971-4.23 1.93-6.35 2.89-0.92 0.416-1.84 0.833-2.79 1.26-1.42 0.636-2.85 1.26-4.28 1.88-1.29 0.572-2.57 1.17-3.84 1.8-7.33 3.56-15.2 5.42-23 7.5-2.62 0.699-5.22 1.44-7.83 2.18-9.86 2.65-19.5 4.64-29.7 5.16-2.54 0.0512-2.54 0.0512-4.55 1.21-1.6 0.096-3.2 0.131-4.8 0.133-0.959 0.00129-1.92 0.00258-2.91 0.00391-1.01-0.00387-2.01-0.00773-3.05-0.0117-1.49 0.0058-1.49 0.0058-3 0.0117-4.89-0.00654-9.43-0.258-14.2-1.14-2.07-0.138-4.14-0.215-6.22-0.291-9.84-0.363-19.3-1.43-28.6-4.72-4.48-1.42-9.04-2.05-13.7-2.76-14.1-2.31-27.8-9.69-40.5-16.2-1.76-0.899-1.76-0.899-3.55-1.82-6.93-3.59-13.4-7.22-19.5-12.2-1.56-1.21-3.12-2.42-4.69-3.62-1.12-0.876-1.12-0.876-2.26-1.77-1.69-1.32-3.4-2.62-5.12-3.92-0.959-0.835-0.959-0.835-1.94-1.69v-2c-0.585-0.269-1.17-0.539-1.77-0.816-2.23-1.18-3.95-2.47-5.85-4.12-0.59-0.504-1.18-1.01-1.79-1.53-1.59-1.54-1.59-1.54-3.59-4.54-0.99-0.33-1.98-0.66-3-1-1.46-1.96-1.46-1.96-2.94-4.38-2.04-3.34-3.88-5.36-7.06-7.62-2.08-2.97-3-4.34-3-8h-2v-2c-0.66-0.33-1.32-0.66-2-1-1.02-1.99-2.02-3.99-3-6-0.66-0.66-1.32-1.32-2-2-0.33-1.01-0.66-2.02-1-3.06-0.658-3.06-0.658-3.06-3-3.94-2.66-3.43-4.23-6.41-5.5-10.6-1.2-3.89-2.82-6.33-5.5-9.44-0.474-1.01-0.949-2.02-1.44-3.06-1.8-3.38-3.21-5.07-6.56-6.94-3.3 0.632-5.78 1.89-8.75 3.44-5.24 2.52-10.8 4.17-16.3 5.94-1.79 0.575-3.57 1.17-5.34 1.76-6.63 2.16-13.1 3.57-20 4.46-2.56 0.256-2.56 0.256-4.58 1.39-2.1 0.112-4.2 0.159-6.31 0.177-0.648 0.00657-1.3 0.0131-1.96 0.0199-2.15 0.0198-4.3 0.0314-6.46 0.0414-0.739 0.00408-1.48 0.00815-2.24 0.0124-3.93 0.0209-7.86 0.0352-11.8 0.0445-4.02 0.011-8.03 0.0452-12 0.0852-3.12 0.0265-6.24 0.0345-9.36 0.0381-1.48 0.0048-2.95 0.0162-4.43 0.035-13 0.155-24.7-2.25-36.9-6.61-2.74-0.933-5.51-1.75-8.28-2.58-6.11-1.84-11.9-3.79-17.5-6.83-2.1-1.13-4.2-2.18-6.34-3.21-12.8-6.15-24.3-13.6-35.7-21.9-2.79-2.03-5.52-3.76-8.62-5.27-1.69-1.64-3.35-3.31-5-5-1.86-1.58-3.74-3.13-5.64-4.67l-1.36-1.33v-2l-1.94-0.812c-2.06-1.19-2.06-1.19-3.06-4.19l-1.79-0.875c-7.16-3.65-12.3-13.5-16.7-20-1.39-2.08-1.39-2.08-3.02-3.5-2.1-2.25-3.14-4.84-4.49-7.59-1.3-2.04-2.64-4.06-4-6.06-2.44-3.59-4.79-7.2-7-10.9-0.773-1.24-0.773-1.24-1.56-2.5-1.41-2.46-2.39-4.87-3.44-7.5-0.786-1.67-1.58-3.34-2.38-5-5.03-11.1-7.68-22.9-10.3-34.7-0.523-2.36-1.06-4.72-1.6-7.08-3.01-13.4-3.9-26.1-3.86-39.8-0.00387-1.25-0.00773-2.49-0.0117-3.77 0.0194-18.4 0.0194-18.4 2.14-22.6 0.235-2.11 0.235-2.11 0.25-4.44l0.0781-2.37c-0.418-2.79-1.18-3.4-3.33-5.19-7.48-3.46-15.7-5.42-23.6-7.56-13.8-3.76-26.8-8.11-39.7-14.4-1.02-0.498-1.02-0.498-2.07-1.01-3.95-1.98-7.18-4.19-10.6-6.99-2.17-1.24-4.36-2.45-6.56-3.62-7.16-3.95-13.6-8.62-19.4-14.4v-2c-0.959-0.402-0.959-0.402-1.94-0.812-2.06-1.19-2.06-1.19-3.06-4.19l-1.75-0.875c-3.04-1.52-4.99-3.61-7.25-6.12v-2l-1.94-0.812c-2.06-1.19-2.06-1.19-3.06-4.19l-1.79-0.859c-3.03-1.56-4.55-3.72-6.65-6.39-1.18-1.49-1.18-1.49-2.38-3l-2.18-2.75c-0.933-1.09-1.87-2.17-2.81-3.25-1.97-2.48-3.47-4.95-4.97-7.73-1.5-2.49-3.22-4.76-4.96-7.09-4.66-6.34-8.58-13-12.2-19.9-0.314-0.588-0.627-1.18-0.95-1.78-4.75-9.06-7.63-18.2-10-28.1-0.563-2.34-1.16-4.39-2.08-6.63-1.4-3.63-1.91-7.35-2.52-11.2-0.702-5.31-0.702-5.31-2.44-10.3-1.28-11.1-1.11-22.4-1.12-33.6-0.00259-0.695-0.00518-1.39-0.00784-2.11-0.0771-26.3-0.0771-26.3 3.13-38.3 0.291-1.19 0.583-2.38 0.883-3.61 1.23-4.94 2.64-9.82 4.05-14.7 1.65-5.71 3.27-11.4 4.75-17.2 0.969-3.6 2.23-6.37 4.31-9.5 0.716-1.66 1.43-3.32 2.12-4.99 1.39-3.19 2.97-6.27 4.55-9.38 0.902-1.79 1.79-3.59 2.66-5.39l1.3-2.68 1.16-2.43c1.21-2.13 2.47-3.44 4.21-5.13 1.01-1.46 1.99-2.94 2.94-4.44 2.13-3.25 4.23-5.9 7.06-8.56 6.83-6.63 6.83-6.63 10.1-15.1-0.374-6.94-3.08-11.1-8.06-15.8-1.37-1.2-2.75-2.39-4.15-3.56-2.45-2.08-4.68-4.33-6.92-6.62l-2.34-2.26c-2.75-2.83-5.21-5.79-7.6-8.93-0.651-0.849-0.651-0.849-1.31-1.71-3.64-4.82-6.78-9.84-9.75-15.1-0.548-0.856-1.1-1.71-1.66-2.59-1.34-2.41-1.34-2.41-1.34-5.41h-2c-3-5.63-3-5.63-3-9h-2c-0.816-1.92-1.63-3.83-2.44-5.75-0.452-1.07-0.905-2.13-1.37-3.23-0.936-2.37-1.62-4.55-2.19-7.02-1.27-3.02-2.53-6.02-3.95-8.97-3.08-6.87-4.39-14-5.75-21.3-0.157-0.849-0.313-1.7-0.475-2.57-0.137-0.769-0.274-1.54-0.415-2.33-0.254-1.8-0.254-1.8-1.42-2.79-0.282-1.32-0.513-2.66-0.719-4l-0.387-2.44c-0.263-1.71-0.526-3.42-0.789-5.12l-0.387-2.44-0.346-2.25c-0.211-1.77-0.211-1.77-1.37-2.75-1.11-6.8-1.16-13.7-1.12-20.6-0.00387-0.881-0.00773-1.76-0.0117-2.67 0.0114-7.74 0.527-15.2 2.57-22.6 1.03-3.93 1.9-7.81 2.56-11.8 0.727-4.22 1.84-8.1 3.28-12.1 0.742-2.26 1.25-4.48 1.72-6.81 0.85-4.06 2.31-7.58 4-11.4 0.472-1.41 0.929-2.83 1.38-4.25 7.38-22.5 20.7-45.2 35.7-63.4 1.88-2.31 3.66-4.68 5.43-7.06 3.41-4.38 7.22-7.8 11.5-11.3 1.04-0.884 2.07-1.77 3.11-2.66 1.09-0.928 2.18-1.85 3.27-2.78 0.524-0.45 1.05-0.9 1.59-1.36 3.81-3.2 3.81-3.2 6.04-3.2v-2c4.38-3 4.38-3 7-3v-2l2.89-1.61c1.27-0.713 2.53-1.43 3.8-2.14l1.9-1.05c2.86-1.62 5.43-3.21 8-5.27 2.67-2.13 5.34-3.52 8.42-4.99 2.93-1.41 5.77-2.8 8.54-4.5 2.58-1.5 4.99-2.41 7.84-3.31 1.05-0.338 2.09-0.675 3.17-1.02 1.14-0.364 2.28-0.727 3.46-1.1 2.56-0.828 5.13-1.66 7.69-2.5 0.953-0.313 0.953-0.313 1.93-0.633 4.39-1.47 8.59-3.16 12.7-5.17 1.64-0.699 1.64-0.699 3.64-0.699v-2h2c-1.35-5.87-2.75-11.6-5.06-17.1-1.72-4.62-2.53-9.14-3.05-14-0.0846-0.783-0.169-1.57-0.256-2.37-0.81-8.17-0.903-16.3-0.84-24.5 0.0183-2.47 0.0205-4.93 0.0203-7.4 0.0173-8.13 0.193-16.2 0.611-24.4 0.0354-0.725 0.0707-1.45 0.107-2.2 0.379-6.56 1.72-12.7 3.47-19 0.215-0.873 0.431-1.75 0.652-2.64 3.17-12.5 7.68-24.8 13.3-36.4 0.562-1.19 1.12-2.37 1.7-3.59 6.62-13.8 14.3-28.8 24.3-40.4h2c0.227-0.557 0.454-1.11 0.688-1.69 1.69-2.97 3.84-4.96 6.31-7.31 0.825-0.825 1.65-1.65 2.5-2.5 2.5-2.5 5-5 7.5-7.5 0.761-0.767 1.52-1.53 2.3-2.32 11.1-11 22.2-20.4 36.4-27 3.29-1.65 6.21-3.6 9.26-5.64 1.77-0.878 3.56-1.71 5.38-2.5 3.24-1.42 6.39-2.88 9.5-4.56 4.46-2.28 9.19-3.6 14-5.01 4.14-1.22 8.2-2.58 12.2-4.08 18.6-6.7 37.2-8.49 56.9-8.26 3.4 0.0371 6.8 0.041 10.2 0.0405 2.19 0.00982 4.39 0.0215 6.58 0.0352 1 0.00223 2 0.00445 3.03 0.00674 7.78 0.105 14.8 1.49 22.2 3.77 0.829 0.254 1.66 0.508 2.51 0.77 2.44 0.779 4.87 1.59 7.3 2.42 3.05 1.03 6.01 1.82 9.19 2.38 0.99 0.33 1.98 0.66 3 1 3.04 0.333 3.04 0.333 6 0 2.25-3.37 2.6-5.66 3.38-9.62 5.38-23.7 20.4-46 35.1-65 1.61-2.07 2.92-4.02 4.25-6.3 0.423-0.677 0.846-1.35 1.28-2.05h2c0.227-0.536 0.454-1.07 0.688-1.62 3.52-6.37 8.84-10.7 14.3-15.4 0.938-0.826 1.88-1.65 2.84-2.5 10.8-9.44 22.4-17.9 35.2-24.5 1.14-0.637 2.28-1.27 3.45-1.93 7.67-4.26 15.1-7.53 23.5-10.1 1.36-0.486 2.71-0.984 4.06-1.5 0.953-0.36 0.953-0.36 1.93-0.727 1.42-0.545 2.83-1.1 4.24-1.67 13.9-5.39 28.5-8.34 43.2-10.2 0.842-0.106 1.68-0.213 2.55-0.322l2.26-0.269c8.03-1.44 8.03-1.44 9.28-1.44zm328 30.1v1h7v-1h-7zm-347 50c-1.12 0.26-2.25 0.521-3.4 0.789-8.64 2.04-16 5.13-23.8 9.31-2.52 1.34-5 2.38-7.7 3.3-4.67 1.68-8.52 4.32-12.6 7.16-0.727 0.494-1.45 0.989-2.2 1.5-2.73 1.87-2.73 1.87-5.3 3.94v2c-1.98 0.495-1.98 0.495-4 1v2c-0.681 0.186-1.36 0.371-2.06 0.562-16.2 7.91-31 35.3-36.9 51.4-11.1 31.7-11.1 31.7-7 64 2.1 3.52 4.53 6.74 7 10 17 23.1 28.4 46.3 36 74 0.283 1.01 0.565 2.02 0.856 3.07 0.267 1 0.533 2 0.808 3.03 0.234 0.873 0.468 1.75 0.709 2.64 2.18 11.3 1.91 23 1.98 34.4 0.0165 2.11 0.0436 4.22 0.082 6.33 0.253 14-0.919 26.6-4.76 40.1-0.731 2.61-1.4 5.24-2.06 7.87-4.4 17.5-12.1 33.7-21.9 48.8-2.58 4.09-4.72 8.33-6.72 12.7-0.433 0.949-0.866 1.9-1.31 2.88-2.23 10.1 0.0659 18.8 2.98 28.5 0.871 2.93 1.58 5.8 2.09 8.8 4.68 27.3 20.2 53.4 37.8 74.2 1.75 2.09 3.39 4.24 5.02 6.42 4.41 5.74 9.41 11 14.4 16.2 0.728 0.777 1.46 1.55 2.21 2.36 1.63 1.87 1.63 1.87 3.79 1.64v2c1.31 1.4 1.31 1.4 3.12 2.88 1.09 0.932 1.09 0.932 2.21 1.88 0.879 0.74 1.76 1.48 2.66 2.24 2.25 1.91 4.5 3.83 6.75 5.75 0.906 0.772 0.906 0.772 1.83 1.56 3.91 3.35 7.72 6.8 11.5 10.3 8.27 7.65 17.2 14.4 26.5 20.7 1.69 1.17 3.36 2.38 5 3.62 6.54 4.97 6.54 4.97 14.4 6.05 2.71-1.2 2.71-1.2 4-4 0.234-13.8-6.7-28.1-12.1-40.5-2.16-5-4-10.1-5.78-15.2-0.74-2.14-1.51-4.26-2.3-6.38-25-66.6-29.2-147-0.188-213 4.79-10.5 9.72-20.2 17.4-28.9 0.728-0.887 1.46-1.77 2.21-2.69 9.99-11.8 23.5-18.3 36.9-25.5 26-14.1 46.5-34.8 58.9-61.8 0.523-1.12 1.05-2.24 1.59-3.39 13.3-29.7 19.7-62.1 8.41-93.6-0.461-1.44-0.919-2.88-1.38-4.33-3.72-11.4-8.42-21.6-14.6-31.9-1.09-1.89-2.07-3.82-3.03-5.79h-3c0.33-0.99 0.66-1.98 1-3-5.01-5.15-10-10-16-14-0.33-0.99-0.66-1.98-1-3-1.76-1.47-3.58-2.85-5.44-4.19-1.1-0.796-2.2-1.59-3.29-2.39-0.551-0.402-1.1-0.803-1.67-1.22-3.13-2.35-6.09-4.92-9.05-7.47-2.76-1.87-5.37-2.85-8.5-3.94-2.56-0.976-4.89-2.29-7.27-3.64-9.91-5.5-20.2-7.6-31.3-9.64-2.23-0.447-4.38-1-6.57-1.62-4.67-1.2-9.27-1.18-14.1-1.13-0.919 0.00532-1.84 0.0106-2.79 0.0161-10.1 0.139-19.4 1.42-29.1 4.23zm295 30c-1.71 0.643-3.43 1.28-5.14 1.93-9.49 3.61-18.3 7.53-26.9 13.1-0.62 0.379-1.24 0.758-1.88 1.15-3.52 2.2-6.23 4.89-9.12 7.85-0.969 0.784-1.94 1.57-2.94 2.38-2.89 2.35-5.15 5.03-7.51 7.9-1.5 1.67-3.02 2.93-4.8 4.29-5.24 4.32-8.81 10.2-12.6 15.8-0.997 1.46-2.02 2.9-3.05 4.34-0.791 1.13-0.791 1.13-1.6 2.27-0.443 0.628-0.887 1.26-1.34 1.9-3.37 6.29-3.4 12.3-3.25 19.3 0.0235 2 0.0462 3.99 0.0684 5.99 0.0219 1.55 0.0219 1.55 0.0442 3.13 0.43 34.5-3.36 65.5-19 96.8-0.487 0.996-0.487 0.996-0.984 2.01-6.14 12.5-14.2 23-23.2 33.6-1.62 2.08-2.79 3.98-3.85 6.38h-2c-1.57 1.55-1.57 1.55-3.19 3.56-6.87 8.03-14.2 14.2-22.8 20.4-0.78 0.587-1.56 1.17-2.36 1.78-5.23 3.84-10.7 6.99-16.4 10.1-26.7 14.6-40.3 31.6-49.6 60.9-0.61 2.38-1.17 4.78-1.69 7.19-0.148 0.686-0.296 1.37-0.449 2.08-5.51 27.1-3.84 57.5-0.551 84.9 0.11 1.1 0.219 2.2 0.332 3.33 1.09 8.57 4.13 16.7 6.81 24.9 1.74 5.35 3.29 10.7 4.79 16.2 5.02 17.8 10.6 35.1 19.1 51.6 0.752 1.68 0.752 1.68 1.52 3.39 1.3 2.97 1.3 2.97 4.86 3.73 3.63 0.155 3.63 0.155 6.38-1.69 4.35-4.72 5.66-9.52 6.54-15.8 0.216-1.47 0.432-2.94 0.649-4.41 0.111-0.772 0.222-1.54 0.336-2.34 10-68.8 33.8-136 82.9-187 1.71-1.77 3.4-3.56 5.09-5.35 20.6-21.5 48.5-41.7 79.1-42.7 3.12-0.0461 6.24-0.0779 9.36-0.0943 2.09-0.012 4.18-0.0315 6.26-0.0531 5.93-0.0609 11.9-0.115 17.8-0.149 3.65-0.0212 7.3-0.0567 10.9-0.101 2.03-0.0206 4.06-0.0262 6.09-0.0312 29.1-0.38 59.3-12.5 81.2-31.5 1-0.851 2-1.7 3.03-2.58 12.7-11.1 22.4-23.4 30-38.4 0.468-0.932 0.936-1.86 1.42-2.82 1.28-2.7 2.44-5.42 3.58-8.18 0.276-0.636 0.552-1.27 0.836-1.93 12.4-28.8 14-66.4 3.16-96.1-1.37-2.77-1.37-2.77-3-5h-2c0.0825-0.949 0.165-1.9 0.25-2.88 0.0422-5.13-2.18-9.52-4.25-14.1h-2l-0.875-3.38c-1.27-4.08-2.56-5.07-5.56-8-2.1-2.15-3.82-4.2-5.56-6.62-2.5-3.22-5.07-6.17-8-9-2.7-2.62-5.04-5.45-7.4-8.38-1.74-1.77-3.36-2.58-5.6-3.62l-3-3h-2c-0.33-0.99-0.66-1.98-1-3-2.22-1.58-2.22-1.58-4.88-3-4.84-2.71-4.84-2.71-6.63-4.53-5.24-5.16-14-7.04-20.9-8.79-2.28-0.607-4.42-1.32-6.62-2.18-24.5-9.51-52.8-6.95-76.9 2.5zm-516 36 4 1zm-62 77c-1.2 0.165-2.39 0.33-3.62 0.5-3.63 0.538-5.29 1.59-8.38 3.5-1.49 0.529-2.99 1.03-4.5 1.5-3.54 1.13-6.37 2.47-9.5 4.5-1.46 0.773-2.92 1.54-4.38 2.31-3.73 2.05-6.82 4.36-9.92 7.26-2.09 1.76-4.36 3.03-6.7 4.43-5.81 4.22-11 8.7-15.5 14.2-1.41 1.69-2.91 3.21-4.47 4.76-1.71 1.98-3.37 3.96-5 6-0.722 0.887-1.44 1.77-2.19 2.69-2.51 4.58-3.12 9.18-3.81 14.3h-2c-5.25 10.9-10.4 22-12.5 33.9-0.457 2.06-0.457 2.06-1.44 4.94-6.16 18.9-4.96 43.7 2.23 62.1 0.989 2.68 1.7 5.41 2.43 8.17 2.26 8.47 5.42 15.5 10.3 22.9 0.609 0.936 0.609 0.936 1.23 1.89 0.909 1.38 1.84 2.75 2.77 4.11l1.25 2.38c7.71 11.6 19.3 16.2 31.9 20.7 7.86 2.88 14.8 6.51 21.9 10.9 1.27 0.736 2.54 1.47 3.81 2.19 1.05 0.598 2.1 1.2 3.19 1.81 0.617 0.338 1.23 0.675 1.87 1.02 4.82 2.66 4.82 2.66 6.46 4.32 2.32 2.32 4.91 4.19 7.54 6.16l3.12 2.34c2.9 2.15 2.9 2.15 5.69 3.72 2.35 1.45 3.8 2.83 5.57 4.94 0.592 0.701 1.18 1.4 1.79 2.12 0.646 0.784 1.29 1.57 1.96 2.38 0.739 0.887 1.48 1.77 2.24 2.69 4.03 4.87 7.93 9.78 11.6 14.9 0.393 0.45 0.786 0.9 1.19 1.36h2c0.255 0.726 0.51 1.45 0.773 2.2 1.3 2.96 2.85 5.08 4.85 7.61 8.47 11.4 13.9 24.7 18.4 38.2 0.391 1.18 0.391 1.18 0.79 2.38 5.03 15.5 7.4 31 8.66 47.2 1.71 21.8 7.71 40.7 23.6 56.4 0.721 0.768 1.44 1.54 2.18 2.33 4.65 4.87 9.57 8.86 15.1 12.7 2.57 1.84 4.95 3.79 7.36 5.83 9.42 7.61 20.3 13.7 31.6 18 2.86 1.12 5.61 2.39 8.39 3.71 6.6 3.02 13 5.62 20.4 5.38 0.33 0.66 0.66 1.32 1 2 1.94 0.839 1.94 0.839 4.25 1.5 2.41 0.743 4.72 1.49 7.03 2.5 2.96 1.09 5.59 1.51 8.72 1.86 1.13 0.129 2.27 0.258 3.44 0.391 1.18 0.126 2.35 0.253 3.56 0.383 1.18 0.134 2.35 0.268 3.56 0.406 4.84 0.539 9.57 1.05 14.4 0.969v2h7c0.33 0.66 0.66 1.32 1 2 1.9 0.271 3.8 0.53 5.7 0.719 2.24 0.274 4.34 0.732 6.53 1.27 4.5 1.02 8.85 1.41 13.4 1.6 1.17 0.0588 1.17 0.0588 2.37 0.119 2.46 0.123 4.92 0.235 7.39 0.346 2.49 0.116 4.97 0.234 7.46 0.357 1.54 0.0759 3.08 0.147 4.62 0.214 5.26 0.255 5.26 0.255 7.48 1.37 4.99 0.137 8.17-0.309 12.1-3.56 0.639-0.804 1.28-1.61 1.94-2.44-1.51-5.36-2.67-9.25-7-13-0.33-0.99-0.66-1.98-1-3-5.19-4.44-10.8-8.14-17-11-3.16-1.6-6.02-3.62-8.93-5.62-1.58-1.07-3.2-2.05-4.85-3-2.19-1.38-2.19-1.38-4.01-3.2-2.3-2.3-4.71-4.32-7.24-6.36-0.975-0.791-1.95-1.58-2.95-2.4-0.985-0.797-1.97-1.59-2.98-2.41-4.95-4.01-9.89-8.02-14.7-12.2-0.631-0.547-1.26-1.09-1.91-1.66-1.24-1.08-2.48-2.16-3.71-3.25-2.55-2.22-4.45-3.82-7.68-4.9-1.33-2-2.67-4-4-6-0.763-0.598-1.53-1.2-2.31-1.81-3.34-2.72-5.61-5.89-8.14-9.36-0.512-0.603-1.02-1.21-1.55-1.83h-2c-0.268-0.804-0.536-1.61-0.812-2.44-0.392-0.846-0.784-1.69-1.19-2.56-0.99-0.33-1.98-0.66-3-1-0.121-0.554-0.242-1.11-0.367-1.68-0.956-3.51-3.39-5.79-5.76-8.45-4.23-4.83-8.03-9.75-11.5-15.1-0.442-0.571-0.884-1.14-1.34-1.73h-2c-0.66-2.31-1.32-4.62-2-7h-2c-0.144-0.598-0.289-1.2-0.438-1.81-0.954-3.71-1.89-5.54-4.56-8.19-0.983-1.72-0.983-1.72-1.82-3.57-0.306-0.667-0.612-1.33-0.928-2.02-0.309-0.69-0.617-1.38-0.936-2.09-0.32-0.702-0.641-1.4-0.971-2.13-0.787-1.73-1.57-3.46-2.34-5.19h-2c-0.177-0.538-0.353-1.08-0.535-1.63-1.34-4.05-2.71-8.08-4.15-12.1-3.32-9.26-6.41-18.5-8.76-28-0.675-2.73-1.37-5.46-2.06-8.19-2.73-10.8-2.73-10.8-3.83-15.3-0.41-1.68-0.833-3.35-1.27-5.02-1.55-6.15-1.73-12.1-1.7-18.4 0.00419-1.06 0.00838-2.12 0.0127-3.21 0.168-11.6 2.66-21.4 7.3-32 0.578-1.46 0.578-1.46 1.17-2.96 3.09-7.63 6.78-14.7 10.8-21.9 12-21.8 20.2-43 20.3-68.2 0.0206-1.23 0.0412-2.47 0.0625-3.74 0.053-12.7-2.25-24-7.5-35.5-0.389-0.879-0.777-1.76-1.18-2.66-3.74-8.41-7.65-16.7-11.6-25h-2c-0.067-0.691-0.134-1.38-0.203-2.09-1.04-3.79-3.13-6.4-5.55-9.41-0.431-0.556-0.861-1.11-1.3-1.68-3.7-4.7-7.73-8.92-12.4-12.7-2.44-2.05-4.49-4.15-6.5-6.62-2.67-3.23-5.59-5.61-9-8.03-2.03-1.45-3.98-2.98-5.94-4.53-5.76-4.32-12-7.76-19.1-8.94v-2c-4.15-1.41-8.29-2.8-12.5-4-5.35-1.53-10.6-3.07-15.6-5.56-17-7.35-47.2-5.9-63.9 1.56zm831 74c-2.03 0.631-4.06 1.25-6.09 1.86-15.2 4.64-29.8 9.45-37.9 24.1-1.02 1.67-2.04 3.33-3.06 5-1.85 3.1-3.58 6.23-5.25 9.44-3.16 5.76-7.47 10.6-11.7 15.6-1.42 1.77-2.84 3.54-4.25 5.31-4.38 5.49-8.76 10.7-13.8 15.7-0.755 0.779-1.51 1.56-2.29 2.36-5.89 6.03-12 11.5-18.7 16.6-0.777 0.606-1.55 1.21-2.36 1.84-6.71 4.97-14 8.55-21.5 12.1-2.13 1.02-4.24 2.08-6.35 3.14-13 6.45-26.3 10.3-40.4 13.3-2.29 0.35-2.29 0.35-3.34 1.58-5.19 0.798-10.2 1.13-15.5 1.14-0.697 0.00347-1.39 0.00695-2.11 0.0105-1.5 0.00729-3 0.0127-4.5 0.0163-2.38 0.00724-4.76 0.023-7.14 0.0413-6.76 0.0521-13.5 0.1-20.3 0.116-4.15 0.0101-8.3 0.0396-12.5 0.0813-1.57 0.0122-3.14 0.0174-4.71 0.0152-10.8-0.0116-19.9 0.933-28.9 7.53-1.1 0.8-1.1 0.8-2.23 1.62-1.11 0.832-1.11 0.832-2.24 1.68-0.779 0.573-1.56 1.15-2.36 1.74-4.91 3.65-9.6 7.42-14 11.6-1.53 1.39-1.53 1.39-3.53 2.39v2c-0.58 0.259-1.16 0.519-1.76 0.786-25.5 13.8-41.1 50.8-51.2 76.5-0.761 1.94-1.53 3.88-2.31 5.82-6.44 16.1-11.5 32.3-15.8 49.1-0.232 0.892-0.463 1.78-0.702 2.7-2.48 9.62-4.62 19.2-6.11 29-0.186 1.22-0.186 1.22-0.376 2.47-1.42 8.01-1.42 8.01 0.188 15.7 4.33 1.29 7.93 1.48 12.1-0.375 6.38-5.7 11.6-12.4 16.9-19.1 7.88-9.69 16.4-18.3 26.1-26.2 2.97-2.4 5.9-4.86 8.82-7.32 4.61-3.86 9.33-7.54 14.1-11.2 4.2-3.21 8.2-6.61 12.2-10.1 8.81-7.63 18.1-13.7 28.3-19.3 3.26-1.8 6.5-3.65 9.72-5.52 12.7-7.4 25.3-14.4 39.4-19.1 2.59-0.914 2.59-0.914 5.39-2.41 11.1-5.45 24.1-6.55 36.1-8.2 1.71-0.235 1.71-0.235 3.45-0.475 1.03-0.137 2.06-0.274 3.12-0.415 2.3-0.177 2.3-0.177 3.35-1.42 8.42-1.19 17-1.22 25.5-1.24 2.01-0.00976 4.01-0.0409 6.02-0.0723 11.1-0.0439 20.7 1.89 30.9 6.23 1.84 0.764 3.71 1.47 5.59 2.13 13.3 4.71 24.3 12 35 20.9 6.99 5.78 14.5 10.1 22.5 14.3 0.961 0.516 1.92 1.03 2.91 1.56 5.6 2.91 11 5.01 17.1 6.46 3.35 0.899 6.34 2.34 9.46 3.82 2.62 1.11 5.2 1.51 8.01 1.85 0.66 0.33 1.32 0.66 2 1h2.81c3.19 0 3.19 0 5.55 0.487 4.69 0.913 9.43 0.739 14.2 0.763 1.02 0.0206 2.04 0.0412 3.1 0.0625 19.7 0.0994 39.6-8.99 56.8-17.9 1.25-0.646 1.25-0.646 2.52-1.3 8.92-4.8 16.3-11.2 23.7-18.1 2.36-2.02 2.36-2.02 4.95-3.53 2.6-1.6 3.97-3.11 5.79-5.55l1.82-2.43c0.597-0.826 1.19-1.65 1.81-2.5 0.545-0.754 1.09-1.51 1.65-2.29 1.81-2.55 3.58-5.13 5.35-7.71 0.391-0.56 0.782-1.12 1.19-1.7 9.84-14.1 15.7-27.4 18.8-44.3 0.178-0.909 0.356-1.82 0.54-2.75 1.41-7.63 1.85-15.1 1.84-22.8-0.00161-1.25-0.00322-2.5-0.00488-3.79-0.233-18.1-2.91-36.3-8.37-53.7h-2l-0.188-3.5c-0.53-4.24-2.05-6.96-4.44-10.4-1.37-2.04-2.49-4.12-3.62-6.3-3.3-6.02-7.53-11.4-11.8-16.8l-1.48-1.92c-2.05-2.57-4.22-4.71-6.77-6.77-2.75-2.31-2.75-2.31-3.75-5.31-2.3-1.14-2.3-1.14-5-2-1.67-0.653-3.34-1.32-5-2-0.66-0.268-1.32-0.536-2-0.812-2-1.19-2-1.19-4.44-3.75-2.73-2.6-3.95-2.94-7.56-3.44-0.33-0.66-0.66-1.32-1-2 0.66-0.33 1.32-0.66 2-1-8.06-4.97-15.7-7.17-25.1-8.38-3.33-0.718-5.88-2.06-8.89-3.62-20.3-7.63-41.8-5.92-62 1zm96 12v2c0.99-0.33 1.98-0.66 3-1-0.99-0.33-1.98-0.66-3-1zm-1092 191c-2.69 1.39-5.38 2.66-8.17 3.86-7.06 2.73-7.06 2.73-12.1 7.81-2.31 1.05-4.64 2.06-7 3l1-1c0.66-0.99 1.32-1.98 2-3-3.55 1.4-3.55 1.4-7 3v2l-1.74 0.852c-2.19 1.11-4.33 2.27-6.45 3.52-0.695 0.4-1.39 0.799-2.11 1.21-2.08 1.72-2.14 2.85-2.71 5.41-1.67 0.667-3.33 1.33-5 2-0.652 2.02-0.652 2.02-1 4l-3 1c-4.11 4.53-8.27 9.21-9.84 15.2-1.3 4.26-3.19 7.61-5.47 11.4-11.6 20.2-13.9 40.9-13.9 63.8-0.00101 0.753-0.00201 1.51-0.00305 2.28 0.0138 15.2 0.443 30.3 7.25 44.3 0.673 1.48 1.34 2.95 2.01 4.43 4.08 8.94 8.34 17.5 14 25.6 0.792 1.18 1.58 2.35 2.38 3.53 4.58 6.71 9.04 12.6 15.6 17.5 0.855 0.642 1.71 1.28 2.59 1.95 2.78 2.05 5.59 4.06 8.41 6.05l2.15 1.57c6.41 4.6 13 8.54 20 12.3l3.13 1.76c9.1 4.96 14.8 6.28 24.9 3.42 0.951-0.286 1.9-0.571 2.88-0.865 0.955-0.274 1.91-0.548 2.89-0.83 3.87-1.11 7.71-2.25 11.5-3.49 9.33-2.3 19-2.02 28.6-1.99 2.13 0.00539 4.26 6.5e-6 6.4-0.00635 16.1-0.00892 31 3.02 46.2 8.38 1.79 0.583 3.61 1.09 5.44 1.55 9.73 2.51 18.1 6.47 26.9 11.2l3.11 1.64c2.65 1.42 5.28 2.88 7.89 4.36 0.793 0.446 1.59 0.892 2.4 1.35 10.7 6.21 20.9 12.9 28.6 22.6 1.65 1.69 3.31 3.35 5 5 6.42 6.28 12.7 12.6 17.8 20 0.722 0.99 1.44 1.98 2.19 3h2c0.271 0.576 0.541 1.15 0.82 1.75 4.83 9.22 14 20.5 24.2 23.7 2.75 0.723 5.51 1.3 8.3 1.82 5.17 0.984 9.67 2.81 14.5 4.95 2.32 1.04 2.32 1.04 5.19-0.25 0.33 0.66 0.66 1.32 1 2 9.88 3.18 21.2 2.34 31.4 2.32 3.01-0.00316 6.02 0.0204 9.03 0.0457 10.3 0.0346 19.7-0.337 29.6-3.36 1.37-0.376 1.37-0.376 2.76-0.76 2.61-0.72 5.21-1.47 7.8-2.24 5.71-1.66 11.4-3.28 17.2-4.62 4.26-1.03 8.07-2.46 12-4.34 2.42-1.13 4.86-2.12 7.34-3.1 3.99-1.58 7.93-3.24 11.9-4.94 1.92-0.792 3.83-1.58 5.75-2.38 15.4-6.42 30-13.8 44.1-22.7 4.34-2.63 8.82-4.91 13.4-7.17 3.04-1.9 4.78-3.77 6.78-6.74 0.0675-2.07 0.0675-2.07-1-4-0.33-0.866-0.66-1.73-1-2.62-3.08-3.66-6.38-3.83-11-4.38-3.69-0.305-7.37-0.559-11.1-0.754-2.94-0.246-2.94-0.246-4.94-1.25-2.66-0.145-5.31-0.234-7.97-0.281-1.2-0.0276-1.2-0.0276-2.42-0.0558-2.56-0.0588-5.12-0.112-7.67-0.163-2.53-0.0517-5.07-0.105-7.6-0.163-1.58-0.0361-3.15-0.0686-4.73-0.0969-13.8-0.313-13.8-0.313-17.6-2.24-1.33-0.18-2.66-0.321-4-0.438-3.19-0.319-6.27-0.791-9.4-1.48-7.95-1.63-16-2.51-24.1-3.5-6.64-0.868-12.4-1.95-18.5-4.59-7.12-2.49-14.3-4.81-21.5-6.88-6.63-1.89-13-3.96-19.3-6.74-2.42-1.06-4.84-2.06-7.29-3.04-12.3-4.89-23.2-10.6-33.9-18.3-2.86-2.05-2.86-2.05-5.64-3.63-2.15-1.32-3.6-2.59-5.3-4.42-1.18-1.05-2.37-2.09-3.56-3.12-4.06-3.53-8.06-7.14-12.1-10.8-1.99-1.78-4.01-3.49-6.07-5.19-3.86-3.3-7.04-7.07-10.3-10.9-0.988-1.13-1.98-2.25-2.97-3.38-1.07-1.23-2.15-2.46-3.22-3.68l-1.55-1.75c-3.33-3.84-5.87-7.7-8.26-12.2h-2l-0.25-1.94c-0.635-2.59-1.36-4.44-2.5-6.81-6.2-13.7-8.1-27.4-9.25-42.2-1.29-16.4-2.61-31.7-9-47-0.262-0.65-0.525-1.3-0.795-1.97-1.64-4.06-3.38-8.05-5.2-12-0.383-0.837-0.766-1.67-1.16-2.54-1.77-3.77-1.77-3.77-4.37-6.97-1.89-1.92-2.54-4.1-3.55-6.55-2.92-6.17-7.94-11.2-12.5-16.2-0.459-0.507-0.918-1.01-1.39-1.54-2.82-3.06-5.74-5.7-9.05-8.21l-2.83-2.18c-5.58-4.22-11.2-8.24-17.2-11.8-0.79-0.504-1.58-1.01-2.39-1.53-4.69-2.94-9.06-5.24-14.4-6.73-2.2-0.738-2.2-0.738-5.09-2.19-27.9-13.9-69.1-10.2-95.9 3.79zm840 61.5c-1.11 0.124-1.11 0.124-2.24 0.251-7.62 0.868-14.8 1.77-21.8 4.94-0.927 0.365-1.85 0.73-2.81 1.11-17.2 7.09-34.4 15-49.6 26-3.41 2.44-6.89 4.76-10.4 7.08-0.627 0.416-1.25 0.833-1.9 1.26-0.606 0.402-1.21 0.805-1.84 1.22-0.593 0.394-1.19 0.788-1.8 1.19-1.61 1.06-3.22 2.12-4.84 3.17-7.28 4.96-13.8 10.7-20 17.1-1.96 1.96-3.99 3.78-6.09 5.6-5.22 4.51-9.8 9.38-14.3 14.6-1.55 1.67-1.55 1.67-3.55 2.67v2l-1.69 0.75c-5.19 2.8-8.64 6.73-12.4 11.2-2.53 2.78-5.32 5.16-8.21 7.55-1.93 1.63-1.93 1.63-3.7 4.54 0.312 2.65 0.312 2.65 1 5 0.99 0.33 1.98 0.66 3 1 0.33 0.66 0.66 1.32 1 2 15.1-1.37 29.1-3.64 43.7-7.78 1.09-0.309 1.09-0.309 2.21-0.623 1.83-0.528 3.65-1.09 5.47-1.65 4.6-1.2 9.2-1.86 13.9-2.5 1.79-0.248 3.58-0.499 5.36-0.754 0.783-0.108 1.57-0.215 2.37-0.326 2.02-0.276 2.02-0.276 3.95-1.36 2.3-0.351 4.6-0.656 6.91-0.938 0.681-0.085 1.36-0.17 2.06-0.258 2.91-0.364 5.83-0.719 8.75-1.08 2.13-0.261 4.25-0.526 6.38-0.792 1.28-0.156 2.55-0.312 3.87-0.473 2.95-0.292 2.95-0.292 5.04-1.46 18.6-3.09 37.9-2.66 56.7-1.12 1.46 0.117 1.46 0.117 2.95 0.237l2.75 0.255c0.796 0.0733 1.59 0.147 2.41 0.222 2.36 0.441 4.08 1.29 6.2 2.41 2.32 0.38 2.32 0.38 4.75 0.5 4.61 0.376 8.79 1.26 13.2 2.5v1c2.94 0.335 5.87 0.668 8.81 1 0.833 0.0954 1.67 0.191 2.53 0.289 0.802 0.0902 1.6 0.18 2.43 0.273 0.738 0.0838 1.48 0.168 2.24 0.254 2.16 0.229 2.16 0.229 4.99 0.184v2c0.874 0.283 1.75 0.566 2.65 0.858 17.8 6.08 35.3 14.9 51.5 24.5 0.798 0.475 1.6 0.95 2.42 1.44 4.38 2.69 8.27 5.58 12 9.07 1.38 1.32 1.38 1.32 3.41 1.11v2c1.66 1.34 3.33 2.67 5 4 12 13.3 19.3 29.4 25.5 46 1.5 3.99 3.27 7.78 5.29 11.5 1.11 2.18 2.07 4.38 3.04 6.63 2.19 4.97 4.89 9.52 7.77 14.1 0.481 0.784 0.963 1.57 1.46 2.38 3.24 5.33 3.24 5.33 6.98 10.3h2c0.231 0.558 0.461 1.12 0.699 1.69 1.65 2.92 3.71 4.91 6.11 7.25 0.852 0.834 1.7 1.67 2.58 2.53 0.86 0.837 1.72 1.67 2.61 2.54 0.824 0.848 1.65 1.7 2.5 2.57 2.46 2.39 4.97 4.37 7.75 6.37 0.871 0.628 1.74 1.26 2.64 1.9 1.03 0.713 2.05 1.43 3.11 2.16 0.643 0.464 1.29 0.928 1.95 1.41 5.98 4.19 12.2 7.08 18.9 9.84 1.01 0.433 2.02 0.866 3.07 1.31 6.64 2.75 13 4.37 20.1 5.44 1.48 0.301 2.96 0.611 4.44 0.938 0.733 0.161 1.47 0.322 2.22 0.488 1.65 0.404 3.28 0.865 4.9 1.37 23.9 7.05 52.9-0.358 74.4-11.8 1.14-0.581 2.29-1.16 3.46-1.76 13.6-7.27 29.9-17.9 39-30.6 0.485-0.656 0.969-1.31 1.47-1.99 1.2-1.65 1.2-1.65 1.03-3.7h2c1.65-2.3 3.15-4.59 4.62-7 0.444-0.721 0.889-1.44 1.35-2.19 18.1-29.8 26.4-61.2 21.3-96-0.157-1.19-0.315-2.39-0.477-3.62-1.33-9.33-3.94-17.2-8.52-25.4-1.65-3.19-2.26-4.53-2.19-8.19-0.183-10.6-9.5-21.6-16.1-29.6-1.94-1.76-3.86-3.2-6.04-4.64-4.48-3.12-9.21-7.12-11-12.4-1.9-0.601-1.9-0.601-4-1-3-2-3-2-4.31-4.44-2.17-3.29-4.02-4.2-7.69-5.56h-3.19c-2.81 0-2.81 0-4.69-1.5-0.371-0.495-0.742-0.99-1.12-1.5 0.33-0.66 0.66-1.32 1-2-6.52-3.08-13.1-5.52-20-7.81-4.02-1.37-7.39-2.97-11-5.19-10.3-3.25-20.9-2.9-31 1-1.73 1.04-3.44 2.13-5.11 3.27-5.67 3.69-11.5 6.64-17.6 9.42-1.05 0.477-2.09 0.954-3.17 1.45-7.92 3.53-15.6 6.01-24.1 7.87-1.82 0.511-3.63 1.03-5.44 1.56-15.2 4.03-29.5 4.97-45.3 4.94-3.64-9.73e-4 -7.29 0.0408-10.9 0.085-13.7 0.0689-25.5-1.05-38.4-5.59-2.31-0.716-4.62-1.43-6.94-2.12-1.03-0.326-2.07-0.652-3.13-0.988-2.75-0.833-5.51-1.52-8.31-2.2-7.27-1.94-13.9-5.38-20.6-8.69-0.91-0.424-1.82-0.848-2.76-1.29-5.9-2.8-11.2-6.24-16.6-9.95-2.52-1.77-2.52-1.77-4.89-2.82-1.77-0.949-1.77-0.949-3.77-3.95-0.99-0.33-1.98-0.66-3-1-1.48-1.37-1.48-1.37-3-3-5.17-5.1-5.17-5.1-12-7-0.33-0.99-0.66-1.98-1-3-2.53-0.994-2.53-0.994-5.5-1.62-5.43-1.3-5.43-1.3-6.5-2.38-13.7-0.833-27.3 0.229-40.9 1.81zm-995 19.2 1 2zm1349 21 1 2zm-1354 2 1 4zm-1 9 1 4zm1385 10c0.33 0.99 0.66 1.98 1 3v-3h-1zm-1385 8 1 3zm1 9 1 4zm4 20 1 3zm1007 2 4 1zm398 0 1 2zm-1400 20 1 2zm693 21c-12.9 14.2-19.7 26.4-20.8 45.7-0.246 3.33-0.246 3.33-0.992 6.29-0.35 4.21 1.28 7.03 3.25 10.6 0.366 0.695 0.732 1.39 1.11 2.11 0.753 1.43 1.51 2.85 2.28 4.27 1.03 1.92 2.04 3.85 3.03 5.79 4.41 8.48 8.65 14.9 16.9 19.8 0.62 0.384 1.24 0.768 1.88 1.16 1.22 0.756 2.44 1.51 3.67 2.26 2.58 1.6 5.09 3.32 7.6 5.04 7.03 3.35 14.3 3.31 21.9 3.29 1.02 0.0161 2.05 0.0322 3.11 0.0488 8.68 0.00552 16.6-1.34 24-6.17 4.39-2.8 8.88-5.23 13.5-7.6 9.83-6.14 16.8-19.6 20-30.5 2.37-12.8 0.899-28.6-2.42-41.1h-2c-0.0825-0.784-0.165-1.57-0.25-2.38-0.247-0.866-0.495-1.73-0.75-2.62-1.32-0.684-2.66-1.35-4-2-0.402-1.14-0.402-1.14-0.812-2.31-1.51-3.41-3.4-4.42-6.44-6.43-3.45-2.48-5.42-5.27-6.75-9.26-1.29-1.38-2.63-2.71-4-4-0.684-0.754-0.684-0.754-1.38-1.52-16.5-15-57.7-4.07-71.6 9.52zm246 14.5c-2.62 0.57-5.22 0.896-7.88 1.16-0.997 0.103-1.99 0.206-3.02 0.312-1.57 0.161-1.57 0.161-3.17 0.324-19.6 2.14-39.2 5.32-58.1 10.7-1.83 0.51-1.83 0.51-3.71 1.03-7.13 2.01-7.13 2.01-13.3 5.97 0.756 5.11 3.83 8.07 7.75 11.2 3.82 2.13 6.97 2.92 11.2 3.81 0.678 0.182 1.36 0.364 2.05 0.551 2.1 0.562 2.1 0.562 4.95 0.449 0.33 0.66 0.66 1.32 1 2 1.9 0.465 1.9 0.465 4.06 0.625 1.3 0.124 2.6 0.248 3.94 0.375v2h5c0.33 0.66 0.66 1.32 1 2 1.86 0.39 1.86 0.39 4 0.5 2.19 0.156 2.19 0.156 4 0.5 0.33 0.66 0.66 1.32 1 2 3.17 1.24 5.58 2 9 2 0.33 0.66 0.66 1.32 1 2 1.97 1.02 3.98 1.97 6 2.88 1.19 0.536 2.38 1.07 3.6 1.62 1.91 0.842 3.82 1.68 5.73 2.5 3.55 1.53 6.99 3.16 10.4 5.02l2.01 1.11c1.33 0.733 2.65 1.48 3.96 2.23 3.59 1.99 6.19 3.11 10.3 2.64v2c1.58 1.18 1.58 1.18 3.66 2.29 1.18 0.665 1.18 0.665 2.38 1.34 0.852 0.473 1.7 0.946 2.58 1.43 8.32 4.72 16.4 9.62 24.4 14.9 0.651 0.433 1.3 0.866 1.97 1.31 13 8.69 24.9 18.2 36.3 29 1.19 1.13 2.38 2.25 3.58 3.38 10.2 9.53 18.5 19.7 26.2 31.3 0.463 0.693 0.926 1.39 1.4 2.1 10.9 16.5 19 34 25.3 52.8 0.306 0.905 0.612 1.81 0.928 2.74 5.76 17.4 4.48 35.1-1.32 52.3-3.98 11.9-5.12 22.9-4.95 35.4 0.0345 2.86 0.0205 5.72 0.00122 8.59 0.00712 11 0.972 20.6 4.6 31.1 0.5 1.46 0.5 1.46 1.01 2.96 0.974 2.69 2.02 5.34 3.11 7.98 0.388 0.936 0.777 1.87 1.18 2.84 14.4 33.7 41.9 60.7 75.8 74.3 0.821 0.318 1.64 0.636 2.49 0.964 1.62 0.643 3.22 1.33 4.8 2.05 7.08 3.15 14 3.99 21.6 4.67 1.29 0.121 2.57 0.241 3.89 0.366 19.7 1.75 39.3 1.82 58.1-5.12 1.01-0.372 1.01-0.372 2.04-0.752 22.2-8.43 39.6-20 55-38.2 0.888-0.984 0.888-0.984 1.79-1.99 20.4-23.7 35.8-61.6 34.4-93-0.485-5.81-2.19-11.4-3.79-17-0.371-1.33-0.742-2.65-1.11-3.98-8.06-28.6-21.1-52.2-42.3-73.1-0.66-0.66-1.32-1.32-2-2-0.66 0.33-1.32 0.66-2 1-0.0619-1.11-0.0619-1.11-0.125-2.25-1.26-3.95-3.3-4.75-6.88-6.75-3.49-0.837-3.49-0.837-7.25-1.12-0.682-0.0722-1.36-0.144-2.07-0.219-2.23-0.234-4.45-0.445-6.68-0.656-2.42-0.243-4.84-0.492-7.26-0.75-1.54-0.163-3.08-0.319-4.63-0.466-4.3-0.443-8.03-1.29-12.1-2.78-1.83-0.514-3.66-1.01-5.5-1.5-3.89-1.04-7.68-2.23-11.5-3.5-1.71-0.464-3.42-0.922-5.12-1.38-8.51-2.3-16.8-5-24.9-8.62-1.13-0.454-2.27-0.908-3.44-1.38-3.42-1.56-6.39-3.34-9.53-5.38-1.95-1.19-3.9-2.16-5.97-3.12-4.11-1.97-7.39-4.69-10.9-7.54-2.23-1.78-2.23-1.78-5.59-2.96-5.37-2.45-9.52-6.35-13.6-10.6-0.33-0.99-0.66-1.98-1-3-0.66-0.33-1.32-0.66-2-1-2-1-2-1-3-4-0.732-0.277-1.46-0.554-2.22-0.84-3.59-1.5-5.75-3.87-8.28-6.72-0.481-0.531-0.962-1.06-1.46-1.61-3.74-4.24-6.68-8.66-9.04-13.8h-2c-0.402-1.3-0.402-1.3-0.812-2.62-1.5-4.26-2.96-8.15-6.19-11.4-0.625-2.13-0.625-2.13-1-4h-2c-0.273-0.853-0.273-0.853-0.551-1.72-0.251-0.772-0.503-1.54-0.762-2.34-0.244-0.754-0.487-1.51-0.738-2.29-0.929-2.6-2-5.11-3.1-7.63-1.31-3.13-2.47-6.31-3.65-9.49-5.02-13.5-9.26-24.7-20.2-34.5-0.501-0.514-1-1.03-1.52-1.56-3.02-2.94-6.57-5.25-10-7.63l-2.32-1.61c-2.15-1.45-2.15-1.45-5.12-1.21-0.619-0.722-1.24-1.44-1.88-2.19-3.47-3.71-8.06-4.89-12.7-6.56-3.03-1.12-5.86-2.4-8.77-3.82-9.83-4.55-20.4-6.64-31.1-8.04-2.51-0.395-2.51-0.395-4.51-1.39-7.23-1.01-14.5-1.16-21.8-1.17-0.982-0.00333-1.96-0.00666-2.97-0.0101-2.06-0.00502-4.12-0.00741-6.17-0.00725-3.12-0.00219-6.25-0.0204-9.37-0.0393-2.01-0.00293-4.03-0.00492-6.04-0.00586-0.92-0.00719-1.84-0.0144-2.79-0.0218-5.41 0.0188-10.4 0.607-15.7 1.77zm-754 84.6c-2.36 0.884-4.73 1.67-7.13 2.44-3.61 1.19-6.89 2.67-10.2 4.46-1.23 0.614-2.46 1.22-3.7 1.83-14.1 6.19-14.1 6.19-26.3 15.2-2.77 1.93-5.51 3.74-8.5 5.31-2.87 1.94-4.73 4.09-6.91 6.75-1.57 1.92-3.23 3.73-4.9 5.56-13.9 15.9-22.8 34.3-28.8 54.4-0.566 1.88-1.17 3.75-1.82 5.6-3.09 9.71-4.63 18.6-4.57 28.8 0.00282 1.21 0.00564 2.43 0.00854 3.67 0.235 13.3 3 25.6 7.78 38 1.07 2.8 2 5.65 2.96 8.49 2.64 7.47 6.06 14.4 9.75 21.4h2c0.186 0.784 0.371 1.57 0.562 2.38 2.03 5.13 5.18 9.2 8.44 13.6 0.499 0.718 0.998 1.44 1.51 2.18 9.53 13.5 25.4 23.6 40.5 29.8 1.65 0.824 3.3 1.66 4.94 2.5 6.12 3.08 12.1 5.4 18.8 6.97 1.67 0.395 3.34 0.816 5 1.25 3.07 0.801 6.16 1.55 9.25 2.28l2.59 0.637c15.1 3.13 39.6 4.75 53.4-3.26 7.95-5.53 14.8-12 21.5-19 2.38-2.26 4.71-3.71 7.51-5.38v-2l5-2v-2l2.21-0.836c6.66-2.78 12.6-7.03 18.5-11.1 6.47-4.35 13.2-7.74 20.2-11.1 0.937-0.464 1.87-0.928 2.84-1.41 6.26-3.02 12.6-4.97 19.3-6.7 2.97-0.68 2.97-0.68 4.87-2.89 2.41-0.62 4.75-1.12 7.19-1.56 1.29-0.249 2.59-0.498 3.92-0.754 11.7-1.84 23.7-1.89 35.6-1.87 1.04 9.06e-4 1.04 9.06e-4 2.09 0.00183 8.57 0.0202 17.1 0.16 25.7 0.936 0.754 0.0616 1.51 0.123 2.29 0.187 4.86 0.532 8.78 1.97 13.2 4.12 3.56 1.58 7.32 2.18 11.1 2.94 7.61 1.94 14.8 4.63 21.6 8.62 10.2 5.76 23.6 5.98 35 3.65 3.21-0.98 6.33-2.11 9.47-3.28 1.18-0.362 2.36-0.724 3.57-1.1 18.7-5.75 41.4-16 53.4-31.9 0.66-0.33 1.32-0.66 2-1v-2c0.619-0.248 1.24-0.495 1.88-0.75 2.51-1.48 2.89-2.69 4.12-5.25 0.99-0.33 1.98-0.66 3-1 1.54-1.52 1.54-1.52 3.06-3.44 2.79-3.3 5.71-6.36 8.81-9.38 9.58-9.52 17.4-20.4 25.1-31.4 1.41-2 2.83-4 4.25-6 10.4-14.6 19.5-29 26.7-45.5 1.42-3.19 2.97-6.3 4.54-9.41 0.423-0.837 0.846-1.67 1.28-2.54 0.925-1.82 1.9-3.62 2.89-5.41 1.37-3.1 1.59-4.52 1.08-7.8-0.108-0.77-0.217-1.54-0.328-2.33-0.25-1.86-0.25-1.86-1.42-2.86-11.1 0-20.7 6.48-30 12v2c-0.804 0.206-1.61 0.412-2.44 0.625-3.03 1.17-5.03 2.27-7.64 4.08-11.2 7.61-23.1 14.8-36 19.2-3.18 1.15-6.16 2.54-9.2 4-7 3.29-14.2 5.83-21.5 8.3-2.27 0.767-4.54 1.55-6.8 2.33-15.6 5.33-31.3 9.21-47.4 12.4-1.08 0.218-2.16 0.436-3.27 0.66-10.1 1.94-20 2.49-30.3 2.47-1.57 0.00144-1.57 0.00144-3.17 0.0029-2.19 6.75e-4 -4.38-0.00113-6.57-0.00534-3.37-0.00541-6.74-4.37e-6 -10.1 0.00635-2.13-6.6e-4 -4.27-0.00194-6.4-0.00391-1.52 0.00304-1.52 0.00304-3.06 0.00613-0.925-0.00315-1.85-0.0063-2.8-0.00955-0.817-7.96e-4 -1.63-0.00159-2.48-0.00241-1.87-0.127-1.87-0.127-2.87-1.13-1.36-0.191-2.72-0.323-4.09-0.43-1.26-0.107-1.26-0.107-2.55-0.216-0.903-0.0756-1.81-0.151-2.73-0.229-7.52-0.694-14.4-1.8-21.6-4.12-2.29-0.651-4.58-1.3-6.88-1.94-1.18-0.343-2.36-0.686-3.57-1.04-2.32-0.668-4.65-1.31-6.98-1.92-7.73-2.13-13.3-5.24-19.6-10.1-1.38-0.864-1.38-0.864-2.79-1.75-4.12-2.89-7.54-6.25-11.1-9.82-0.709-0.712-1.42-1.42-2.15-2.16-5.31-5.42-9.73-11-14-17.3-3.66-5.01-7.08-9.19-12-13-1.1-1.26-2.18-2.53-3.25-3.81-3.19-3.75-6.67-6.64-10.6-9.55-2.23-1.73-4.14-3.62-6.11-5.64-5.77-5.63-11.8-9.35-19-13-1.02-0.579-2.03-1.16-3.08-1.75-8.74-4.8-17.3-7.01-27-9.12-5.01-1.1-9.76-2.58-14.6-4.33-17-5.69-35.8-1.88-52 4.31zm653 0.892c-1.88 3.3-2.44 6.17-1.71 9.94 2.87 8.32 9.07 14.8 15 21 5.69 6 10.7 12.5 15.7 19.1l2.22 2.94c30 40.5 53.1 86.1 62.2 136 0.516 2.79 1.07 5.57 1.64 8.35 6.04 31.6 4.45 75.5-10.8 104-0.34 0.661-0.68 1.32-1.03 2-3.56 6.7-7.97 12.6-13.5 17.8-2 1.67-2 1.67-1.77 3.86h-2c-1.43 1.42-1.43 1.42-2.94 3.31-2.97 3.52-6.11 6.7-9.44 9.88-12.3 12-20.4 27.6-27.4 43.1-0.373 0.815-0.746 1.63-1.13 2.47-3.97 8.93-6.44 17.5-7.24 27.3-0.079 0.913-0.158 1.83-0.239 2.77-1.06 13.2-0.708 26.1 0.239 39.2 0.0699 1.04 0.14 2.08 0.212 3.15 0.879 10.9 4.23 20 8.79 29.9 0.413 0.92 0.826 1.84 1.25 2.79 2.53 5.53 5.33 10.8 8.54 15.9 1.45 2.37 2.8 4.79 4.15 7.22 5.41 9.01 13.1 16.5 21.2 23.1l2.82 2.33c8.17 6.6 16.9 11.8 26.2 16.7 0.678 0.355 1.36 0.71 2.05 1.08 3.85 1.97 7.62 3.63 11.8 4.92 4.79 1.54 9.52 3.2 14.2 4.97 0.977 0.339 1.95 0.678 2.96 1.03 0.705 0.257 1.41 0.513 2.14 0.778 6.75 2.28 12.9 2.66 20 2.53 1.1-0.0127 2.21-0.0255 3.34-0.0386 29.5-0.522 58.4-9.12 81.2-28.3 1.58-1.32 3.2-2.61 4.84-3.84 6.58-4.96 11.5-10.6 16.5-17.1 0.594-0.73 1.19-1.46 1.8-2.21 12.8-15.8 23-34.5 26.2-54.8 0.189-1.14 0.379-2.27 0.574-3.44 2.46-15.9 2.84-31.1 1.25-47.1-0.203-2.06-0.395-4.11-0.586-6.17-0.538-13.1-0.538-13.1-6.24-24.3h-2v-2c-1.29-1.38-2.63-2.71-4-4-0.701-0.742-1.4-1.49-2.12-2.25-1.69-1.98-1.69-1.98-3.88-1.75-1.16-1.16-2.31-2.32-3.45-3.5-3.59-3.46-7.69-6.48-12.1-8.88-4.72-3.07-9.7-7.22-11.5-12.6-2-1.21-2-1.21-4-2v-2c-1.44-1.16-2.88-2.32-4.33-3.48-2.92-2.66-4.93-5.9-7.05-9.21-0.45-0.676-0.9-1.35-1.36-2.05-3.26-4.98-3.26-4.98-3.26-7.26-0.563-0.553-1.13-1.11-1.71-1.68-10.9-11-15.7-27.3-20.4-41.6-0.729-2.19-1.49-4.36-2.28-6.53-3.18-9.19-3.94-18.5-4.62-28.2-0.0685-0.875-0.137-1.75-0.208-2.65-1.92-25.7-1.56-54.3 5.9-79.2 4.62-16.7-2.6-30.3-10.8-44.7-5.96-10.1-12.6-19.3-20.5-27.9-4.13-4.54-8.04-9.28-11.9-14.1-1.68-1.67-3.38-2.44-5.49-3.48-0.667-1.33-1.33-2.67-2-4-1.32-0.702-2.65-1.37-4-2-1.36-1.31-2.69-2.65-4-4-2.92-2.54-5.71-4.81-8.94-6.94-2.34-1.58-4.2-3.05-6.25-4.94-3.68-3.23-7.72-5.36-12-7.61-2.63-1.43-5.06-3-7.52-4.7-3.61-2.47-7.2-4.14-11.2-5.81-1.7-0.9-3.38-1.82-5.06-2.75-6.55-3.62-13.2-6.97-19.9-10.2-0.973-0.478-1.95-0.956-2.95-1.45-5.33-2.53-10.5-4.36-16.2-5.81-9.79-2.58-19.3-6.22-28.5-10.4-5.01-1.98-8.67-3.41-13.3-0.312zm-47.6 53.3c-5.34 6.52-4.8 15.6-4.09 23.5 0.155 1.26 0.31 2.53 0.469 3.83 0.084 0.693 0.168 1.39 0.255 2.1 0.178 1.46 0.358 2.91 0.54 4.37 0.273 2.19 0.539 4.37 0.803 6.56 0.747 6.1 1.53 12.2 2.71 18.2 1.48 8.64 1.29 17.4 1.27 26.1-8.76e-4 0.931-0.00175 1.86-0.00266 2.82-0.0485 15.7-1.23 30.7-4.01 46.2-0.549 3.12-1.06 6.24-1.58 9.37-0.724 4.36-1.47 8.71-2.22 13.1-0.208 1.23-0.208 1.23-0.421 2.49-1.85 10.8-4.44 20.8-8.14 31.1-0.636 1.94-1.26 3.88-1.89 5.83-4.21 12.8-9.35 24.5-16.1 36.2-0.518 0.899-0.518 0.899-1.05 1.82-7.05 12.1-14.8 24.5-24.6 34.6-1.58 1.5-1.58 1.5-1.36 3.6h-2c-1.52 1.56-1.52 1.56-3.11 3.58-3.68 4.32-7.68 7.76-12.2 11.2-0.745 0.566-1.49 1.13-2.26 1.72-5.23 3.88-10.2 6.53-16.4 8.53-0.846 0.516-1.69 1.03-2.56 1.56-6.29 3.71-13 4.74-20.1 5.81-10.9 1.67-21 4.84-31 9.52-4.36 2.01-8.82 3.8-13.3 5.64-2.74 1.28-4.78 2.62-7.14 4.46-1.05 0.433-2.1 0.866-3.19 1.31-13.6 5.68-24.4 17.7-33.8 28.7-0.642 0.731-1.28 1.46-1.95 2.21-9.3 11-16.4 23.6-22.1 36.8-0.37 0.847-0.74 1.69-1.12 2.57-4.92 11.8-5.95 24.2-6.02 36.9-0.0057 0.86-0.0114 1.72-0.0173 2.61-0.00937 1.81-0.016 3.62-0.0198 5.42-0.00968 2.72-0.0408 5.43-0.0723 8.15-0.0832 13.5 0.934 26.3 6.44 38.8 0.298 0.698 0.596 1.4 0.903 2.11 4.83 11 10.8 21.3 18.1 30.9 1.95 2.58 3.78 5.23 5.6 7.91 2.5 3.59 5.09 6.65 8.31 9.62 0.742 0.784 1.49 1.57 2.25 2.38 3.69 3.53 7.66 6.57 11.8 9.62 0.728 0.557 1.46 1.11 2.21 1.69 11 8.13 23.5 14.7 36.8 18.3 0.865 0.238 1.73 0.477 2.62 0.723 3.04 0.834 6.08 1.65 9.13 2.46 0.983 0.263 1.97 0.525 2.98 0.796 15.9 4.11 29.8 3.89 45.4-0.639 3.98-1.14 7.95-1.95 12-2.67 24.8-4.47 44.8-19.8 62.9-36.7 0.74-0.689 0.74-0.689 1.49-1.39 11.7-10.9 18.7-23.2 25.5-37.6 0.299-0.629 0.597-1.26 0.905-1.91 3.55-7.58 6.26-14.7 7.1-23.1 0.0825-0.71 0.165-1.42 0.25-2.15 0.551-9.25-2.79-19-6.75-27.2-4.32-9.89-5.06-21-6.5-31.6-0.158-1.09-0.315-2.19-0.478-3.31-1.76-12.2-3.16-23.9-1.79-36.2 0.326-2.97 0.599-5.94 0.876-8.92 4.67-48 25.5-84.9 57.7-120 2.25-2.47 4.47-4.96 6.68-7.47 0.654-0.74 1.31-1.48 1.98-2.24 7.56-9.06 9.68-19.4 11.3-30.9 0.25-1.8 0.25-1.8 0.506-3.63 1.95-14.8 1.27-28.4-0.568-43.1-0.0825-0.667-0.165-1.33-0.25-2.02-1.04-8.26-2.48-16.2-4.94-24.1-0.253-0.839-0.506-1.68-0.766-2.54-3.79-12.3-8.36-24-14.2-35.5-0.391-0.766-0.782-1.53-1.18-2.32-10.7-20.8-21.8-40.8-36.4-59-6.27-7.81-12.2-15.8-17.7-24.2-0.558-0.844-1.12-1.69-1.69-2.56-0.507-0.772-1.01-1.54-1.54-2.34-0.483-0.548-0.967-1.1-1.46-1.66-3.5 0-4.97 0.973-7.57 3.25zm491-0.254 4 1zm-563 16.6c-4.11 4.57-6.68 10-9.44 15.5-0.654 1.26-1.31 2.52-1.97 3.77-1.93 3.69-3.82 7.39-5.72 11.1-10.8 20.9-22 40.9-36.3 59.7-2.76 3.69-5.37 7.48-8.01 11.3-11.9 16.9-25.9 32.8-42.7 45-1.42 1.07-2.84 2.15-4.26 3.23-7.63 5.75-15.3 11.3-23.4 16.4-0.622 0.389-1.24 0.778-1.89 1.18-4.35 2.66-8.84 4.96-13.4 7.2-1.58 0.791-1.58 0.791-3.2 1.6-2.93 1.47-5.87 2.93-8.8 4.4-0.982 0.516-1.96 1.03-2.98 1.56-3.06 1.46-6.02 2.44-9.27 3.38-4.03 1.19-7.85 2.48-11.7 4.19-11.3 4.6-24 4.2-36 4.14-2.55-0.0107-5.09-3.69e-5 -7.64 0.0127-25.3 0.0268-25.3 0.0268-36.1-5.71-5.14-2.61-10.1-4.49-15.7-5.82-2.91-0.815-5.47-1.97-8.21-3.24-17.6-7.48-42.3-8.78-60.2-2.19-0.633 0.259-1.27 0.518-1.92 0.785-2.93 1.16-5.91 2.14-8.89 3.15-7.47 2.66-14.4 6.04-21.4 9.75l-2.6 1.35c-7.93 4.23-14.7 9.76-21.4 15.7-1.74 1.47-3.48 2.94-5.23 4.41-2.35 2.11-4.55 4.35-6.77 6.59-1.03 0.984-2.06 1.97-3.09 2.95-9.68 9.3-16.1 18.9-21.9 31.1-0.687 1.31-1.37 2.63-2.06 3.94-4.03 8.18-6.4 16.4-7.9 25.3-0.533 3.17-1.17 6.2-2.06 9.29-4.24 15-3.08 33.8 2.3 48.3 1.04 3.11 1.56 6.27 2.09 9.49 1.55 6.58 4.44 12.6 7.5 18.6 0.352 0.697 0.704 1.39 1.07 2.11 5.44 10.8 5.44 10.8 12.1 21h2l0.625 2c3.06 6.68 7.72 11.6 13.3 16.3 2.47 2.12 4.72 4.43 7.03 6.74 6.7 6.13 13 10.9 21.3 14.7 2.47 1.17 4.61 2.46 6.87 3.99 3.62 2.35 7.23 3.51 11.4 4.63 2.33 0.636 4.59 1.38 6.87 2.18 12.5 4.19 24.3 5.68 37.4 5.69 1.1 0.0122 2.21 0.0245 3.34 0.0371 9.91 0.0174 19.3-1.08 28.6-4.44 3.39-1.17 6.84-2.04 10.3-2.94 0.98-0.278 1.96-0.557 2.97-0.844 0.662-0.187 1.32-0.374 2-0.566 6.12-1.87 11.3-4.66 16.7-8 0.873-0.531 1.75-1.06 2.64-1.61 19.9-12.3 19.9-12.3 34.6-29.8 0.765-3.29 1.1-6.58 1.44-9.94 1.58-12.9 5.34-24 11-35.7 1.13-2.39 2.19-4.77 3.21-7.21 3.3-7.89 6.96-15.2 11.5-22.5 2.14-3.1 2.14-3.1 2.84-6.7h2c1.28-1.45 1.28-1.45 2.56-3.38 5.58-7.68 12.1-14.5 19-21 1.66-1.48 1.66-1.48 1.43-3.59 0.639-0.268 1.28-0.536 1.94-0.812 2.39-1.07 2.39-1.07 3.06-4.19 1.67-0.667 3.33-1.33 5-2 0.33-0.99 0.66-1.98 1-3 1.31-0.715 2.65-1.37 4-2 1.67-1.2 3.32-2.43 4.96-3.67 5.96-4.38 12.2-8.02 18.7-11.6 1.07-0.598 2.13-1.2 3.23-1.81 8.1-4.5 15.9-8.56 25-10.9 4.52-1.23 8.72-2.64 13-4.56 4.83-2.11 9.57-3.42 14.7-4.56 21.1-4.71 35.2-12.6 47.3-30.7 1.86-2.78 3.77-5.51 5.72-8.23 9.54-13.7 16.8-27.7 22.2-43.5 0.282-0.817 0.563-1.63 0.854-2.48 3.96-12.1 5.77-24.5 7.22-37.1 0.235-2.03 0.478-4.05 0.723-6.08 0.512-4.28 0.985-8.56 1.45-12.8 0.0901-0.809 0.18-1.62 0.273-2.45 1.45-13.2 2.13-26.2 2.1-39.5-3.17e-4 -1.38-3.17e-4 -1.38-6.41e-4 -2.79-0.0278-12.2-0.501-24.3-2.06-36.4-0.148-1.19-0.297-2.38-0.45-3.6-1.04-6.98-2.93-12.4-6.86-18.3-4.25 0-5.8 1.83-8.87 4.63zm-704 12.4 1 2zm-3 15v5h1v-5h-1zm-1 15 1 4zm0 26v7h1v-7h-1zm1 18v6h1v-6h-1zm4 23 1 2z" fill="#FAFBFD"/>
<path transform="translate(1358,969)" d="m0 0c3.19 3.09 6.25 6.29 9.25 9.56 0.686 0.744 1.37 1.49 2.08 2.25 1.67 2.18 1.67 2.18 2.22 4.4 0.15 0.589 0.299 1.18 0.453 1.79 0.99 0.33 1.98 0.66 3 1 12.9 18.2 19.7 39.3 24.5 60.8 0.538 2.35 0.538 2.35 1.66 5.23 1.19 4 1.17 7.73 1.12 11.9 0.0116 1.16 0.0116 1.16 0.0234 2.34-0.0167 4.93-0.758 8.99-2.27 13.7-0.406 1.58-0.8 3.16-1.18 4.74-0.206 0.839-0.411 1.68-0.623 2.54-0.419 1.72-0.835 3.44-1.25 5.16-2.08 8.46-4.75 16.5-8.26 24.5-0.303 0.692-0.607 1.38-0.919 2.1-2.14 4.78-4.55 9.27-7.35 13.7-2.3 3.66-4.35 7.47-6.42 11.3h-2c-0.402 1.21-0.402 1.21-0.812 2.44-0.392 0.846-0.784 1.69-1.19 2.56-0.99 0.33-1.98 0.66-3 1 1.29-3.58 2.84-6.34 5.12-9.38 4.66-6.53 8.3-13.5 11.9-20.6 0.514-1.01 1.03-2.02 1.56-3.05 11.1-23.6 17.1-50.6 9.82-75.9-0.371-1.33-0.742-2.65-1.11-3.98-7.34-26-18.6-48.4-37.3-68.1 0.33-0.66 0.66-1.32 1-2z" fill="#000002"/>
<path transform="translate(1438,677)" d="m0 0c3.74 1.48 5.29 3.44 7.5 6.75 0.603 0.896 1.21 1.79 1.83 2.71 0.828 1.25 0.828 1.25 1.67 2.54 0.407 0.599 0.815 1.2 1.23 1.82 0.939 1.38 1.85 2.78 2.77 4.18 0.557 0.742 1.11 1.49 1.69 2.25 1.34 2.8 1.42 4.05 1.5 7.06 0.347 5.28 2.31 9.11 4.75 13.7 3.17 6.03 5.34 11.2 6.06 18 0.253 1.92 0.253 1.92 0.512 3.87 1.09 8.52 1.74 17.1 2.18 25.6 0.0484 0.914 0.0968 1.83 0.147 2.77 0.0569 1.27 0.0569 1.27 0.115 2.57 0.0344 0.755 0.0688 1.51 0.104 2.29-0.0535 1.87-0.0535 1.87-1.05 3.87-0.323 2.79-0.609 5.58-0.875 8.38-1.04 10-2.81 19.4-7.12 28.6-0.312 0.79-0.624 1.58-0.945 2.39-8.54 21.1-22.5 42.2-41.1 55.6-0.66-0.33-1.32-0.66-2-1 0.857-0.678 1.71-1.36 2.6-2.05 6.42-5.19 11.8-10 16.1-17.1 0.419-0.594 0.838-1.19 1.27-1.8h2c0.278-0.571 0.555-1.14 0.841-1.73 1.15-2.26 2.4-4.41 3.7-6.59 18.1-30.7 27-61 21.7-96.9-0.157-1.19-0.315-2.39-0.477-3.62-1.33-9.33-3.94-17.2-8.52-25.4-1.65-3.19-2.26-4.53-2.19-8.19-0.173-10-8.31-19.1-14.1-26.9-1.98-2.74-1.98-2.74-1.98-3.74z" fill="#000002"/>
<path transform="translate(1336,385)" d="m0 0c3.96 1.49 5.35 3.68 7.5 7.25 0.606 0.995 1.21 1.99 1.84 3.02 0.824 1.35 0.824 1.35 1.66 2.73 1.05 1.49 1.05 1.49 2.12 3 2.78 4.45 4.79 9.19 6.88 14 0.364 0.759 0.727 1.52 1.1 2.3 3.2 7.07 4.17 14.4 5.29 22 0.212 3.48 0.212 3.48 1.61 4.68 6.3 38.5 1.64 73.5-20 106h-2c-0.268 0.969-0.536 1.94-0.812 2.94-0.392 1.01-0.784 2.02-1.19 3.06-0.99 0.33-1.98 0.66-3 1 1.52-4.44 3.96-8 6.62-11.8 9.13-13.5 14.6-26.1 17.4-42.2 0.175-0.904 0.35-1.81 0.531-2.74 1.41-7.64 1.85-15.1 1.84-22.8-8.86e-4 -1.25-0.00177-2.5-0.00269-3.78-0.206-16.7-2.89-32.9-6.79-49.1-0.579-2.6-0.579-2.6-0.579-4.6h-2c-0.351-1.22-0.701-2.43-1.06-3.69-3.37-10-9-18.8-15.4-27.2-1.5-2.14-1.5-2.14-1.5-4.14z" fill="#000002"/>
<path transform="translate(1165,1229)" d="m0 0c4.1 1.46 6.18 4.17 8 8 0.935 3.55 1.36 7.11 1.75 10.8 0.121 1.08 0.241 2.15 0.366 3.26 3.35 33.6 1.84 65.7-14.1 96-0.66-0.33-1.32-0.66-2-1 0.257-0.568 0.514-1.14 0.779-1.72 7.07-15.7 7.07-15.7 11.2-32.3 0.189-1.14 0.379-2.27 0.574-3.44 2.46-15.9 2.84-31.1 1.25-47.1-0.203-2.06-0.395-4.11-0.586-6.17-0.57-13.5-0.57-13.5-7.24-24.3v-2z" fill="#000002"/>
<path transform="translate(1148,807)" d="m0 0c7.47 6.96 10.8 19.5 13.4 29.1 1.46 5.16 3.85 9.74 6.36 14.5 1.21 2.47 1.21 2.47 1.21 4.47h-2c-3.84-7.21-6.99-14.4-9.64-22.1-1.84-5.34-3.95-10.6-6.04-15.8-0.287-0.728-0.574-1.46-0.869-2.2-0.256-0.644-0.512-1.29-0.776-1.95-0.697-1.94-1.21-3.88-1.68-5.88z" fill="#000002"/>
<path transform="translate(1172,861)" d="m0 0h2c1.18 1.57 1.18 1.57 2.44 3.69 0.443 0.737 0.887 1.47 1.34 2.23 0.402 0.686 0.804 1.37 1.22 2.08 3.46 5.87 7.09 11.6 11.4 16.9 1.62 2.06 1.62 2.06 1.62 4.06 0.66 0.33 1.32 0.66 2 1h-3c-1.83-1.83-3.44-3.62-5.06-5.62-0.447-0.522-0.893-1.04-1.35-1.58-2.83-3.43-4.44-6.51-5.58-10.8h-2c-2.06-3.93-3.69-7.77-5-12z" fill="#000002"/>
<path transform="translate(1422,663)" d="m0 0c4.29 0.46 5.94 2.88 8.62 6.06 1.42 1.68 2.87 3.34 4.38 4.94h2v2c-4.43-0.422-6.84-3.46-9.75-6.5-0.507-0.512-1.01-1.02-1.54-1.55-3.71-3.79-3.71-3.79-3.71-4.95z" fill="#000002"/>
<path transform="translate(1322,371)" d="m0 0c6.05 2.69 9.96 6.92 14 12-0.33 0.66-0.66 1.32-1 2-0.352-0.436-0.704-0.871-1.07-1.32-3.26-3.93-6.64-7.3-10.6-10.5-0.436-0.384-0.871-0.768-1.32-1.16v-1z" fill="#000002"/>
<path transform="translate(1336,557)" d="m0 0c0 4.87-2.99 7.94-6.25 11.4-0.578 0.536-1.15 1.07-1.75 1.62l-2-1c3.23-4.1 6.59-8.06 10-12z" fill="#000002"/>
<path transform="translate(1366,1152)" d="m0 0c0.33 0.66 0.66 1.32 1 2-1.38 2-1.38 2-3 4h-2c-0.268 0.639-0.536 1.28-0.812 1.94-1.19 2.06-1.19 2.06-4.19 3.06 1.41-3.22 3.1-5.32 5.62-7.75 0.632-0.614 1.26-1.23 1.91-1.86 0.723-0.688 0.723-0.688 1.46-1.39z" fill="#000002"/>
<path transform="translate(175,563)" d="m0 0c0.99 0.33 1.98 0.66 3 1-2 3-2 3-4.62 3.69-1.18 0.155-1.18 0.155-2.38 0.312 1.32-1.65 2.64-3.3 4-5z" fill="#87888A"/>
<path transform="translate(347,283)" d="m0 0c0.66 0.33 1.32 0.66 2 1-4.75 3-4.75 3-7 3v-2c2.38-1.06 2.38-1.06 5-2z" fill="#000002"/>
<path transform="translate(337,287)" d="m0 0v3c-0.66 0.66-1.32 1.32-2 2 0-3 0-3 2-5z" fill="#DCDDDF"/>
<path transform="translate(371,271)" d="m0 0h2v3c-1.32-0.33-2.64-0.66-4-1l2-2z" fill="#D8D8DA"/>
<path transform="translate(1406,652)" d="m0 0c2.47 0.495 2.47 0.495 5 1-1.32 0.33-2.64 0.66-4 1-0.33-0.66-0.66-1.32-1-2z" fill="#000002"/>
<path transform="translate(359,277)" d="m0 0c0.99 0.33 1.98 0.66 3 1-1.65 0.33-3.3 0.66-5 1l2-2z" fill="#000002"/>
<path transform="translate(1339,957)" d="m0 0c1.32 0.33 2.64 0.66 4 1l-2 1c-0.66-0.66-1.32-1.32-2-2z" fill="#000002"/>
<path transform="translate(1245,933)" d="m0 0c1.32 0.33 2.64 0.66 4 1l-2 1c-0.66-0.66-1.32-1.32-2-2z" fill="#000002"/>
<path transform="translate(1239,928)" d="m0 0c0.66 0.33 1.32 0.66 2 1-0.33 0.66-0.66 1.32-1 2-0.66-0.66-1.32-1.32-2-2 0.33-0.33 0.66-0.66 1-1z" fill="#000002"/>
<path transform="translate(1265,344)" d="m0 0c1.32 0.33 2.64 0.66 4 1l-2 1c-0.66-0.66-1.32-1.32-2-2z" fill="#000002"/>
<path transform="translate(332,291)" d="m0 0c0.99 0.33 1.98 0.66 3 1-0.66 0.66-1.32 1.32-2 2-0.33-0.99-0.66-1.98-1-3z" fill="#646567"/>
<path transform="translate(350,281)" d="m0 0c0.99 0.33 1.98 0.66 3 1-1.32 0.33-2.64 0.66-4 1 0.33-0.66 0.66-1.32 1-2z" fill="#000002"/>
<path transform="translate(373,270)" d="m0 0c0.99 0.33 1.98 0.66 3 1-0.33 0.66-0.66 1.32-1 2-0.66-0.99-1.32-1.98-2-3z" fill="#646567"/>
<path transform="translate(375,269)" d="m0 0 4 2c-1.32-0.33-2.64-0.66-4-1v-1z" fill="#646567"/>
<path transform="translate(727,1551)" d="m0 0 4 1z" fill="#000002"/>
<path transform="translate(922,1456)" d="m0 0 4 1z" fill="#000002"/>
<path transform="translate(1345,960)" d="m0 0c0.99 0.33 1.98 0.66 3 1h-3v-1z" fill="#000002"/>
<path transform="translate(1242,931)" d="m0 0c0.99 0.33 1.98 0.66 3 1h-3v-1z" fill="#000002"/>
<path transform="translate(1229,923)" d="m0 0c0.99 0.33 1.98 0.66 3 1h-3v-1z" fill="#000002"/>
<path transform="translate(1226,921)" d="m0 0c0.99 0.33 1.98 0.66 3 1h-3v-1z" fill="#000002"/>
<path transform="translate(1221,917)" d="m0 0c0.99 0.33 1.98 0.66 3 1h-3v-1z" fill="#000002"/>
<path transform="translate(1084,607)" d="m0 0 4 1z" fill="#000002"/>
<path transform="translate(1318,370)" d="m0 0c0.99 0.33 1.98 0.66 3 1h-3v-1z" fill="#000002"/>
<path transform="translate(1312,366)" d="m0 0c0.99 0.33 1.98 0.66 3 1h-3v-1z" fill="#000002"/>
<path transform="translate(297,325)" d="m0 0h2v2h-2v-2z" fill="#000002"/>
<path transform="translate(329,293)" d="m0 0 2 2c-0.99-0.33-1.98-0.66-3-1l1-1z" fill="#000002"/>
<path transform="translate(364,275)" d="m0 0c0.33 0.66 0.66 1.32 1 2-0.99-0.33-1.98-0.66-3-1 0.66-0.33 1.32-0.66 2-1z" fill="#000002"/>
<path transform="translate(366,273)" d="m0 0c1.49 0.99 1.49 0.99 3 2h-3v-2z" fill="#FCFDFF"/>
<path transform="translate(1072,179)" d="m0 0c0.99 0.33 1.98 0.66 3 1h-3v-1z" fill="#000002"/>
<path transform="translate(1335,956)" d="m0 0c3 1 3 1 3 1z" fill="#000002"/>
<path transform="translate(1304,952)" d="m0 0c3 1 3 1 3 1z" fill="#000002"/>
<path transform="translate(1287,947)" d="m0 0c3 1 3 1 3 1z" fill="#000002"/>
<path transform="translate(1265,941)" d="m0 0c3 1 3 1 3 1z" fill="#000002"/>
<path transform="translate(901,849)" d="m0 0c3 1 3 1 3 1z" fill="#000002"/>
<path transform="translate(648,829)" d="m0 0c3 1 3 1 3 1z" fill="#000002"/>
<path transform="translate(1057,764)" d="m0 0c3 1 3 1 3 1z" fill="#000002"/>
<path transform="translate(1403,651)" d="m0 0c3 1 3 1 3 1z" fill="#000002"/>
<path transform="translate(1158,649)" d="m0 0c3 1 3 1 3 1z" fill="#000002"/>
<path transform="translate(1378,639)" d="m0 0c3 1 3 1 3 1z" fill="#000002"/>
<path transform="translate(1367,634)" d="m0 0c3 1 3 1 3 1z" fill="#000002"/>
<path transform="translate(1364,633)" d="m0 0c3 1 3 1 3 1z" fill="#000002"/>
<path transform="translate(170,568)" d="m0 0c0.66 0.66 1.32 1.32 2 2h-2v-2z" fill="#000002"/>
<path transform="translate(1253,340)" d="m0 0c3 1 3 1 3 1z" fill="#000002"/>
<path transform="translate(1248,339)" d="m0 0c3 1 3 1 3 1z" fill="#000002"/>
<path transform="translate(1233,338)" d="m0 0c3 1 3 1 3 1z" fill="#000002"/>
<path transform="translate(339,287)" d="m0 0c3 1 3 1 3 1z" fill="#000002"/>
<path transform="translate(379,268)" d="m0 0c3 1 3 1 3 1z" fill="#000002"/>
<path transform="translate(696,1546)" d="m0 0 2 1z" fill="#000002"/>
<path transform="translate(673,1541)" d="m0 0 2 1z" fill="#000002"/>
<path transform="translate(978,1481)" d="m0 0 2 1z" fill="#000002"/>
<path transform="translate(962,1476)" d="m0 0 2 1z" fill="#000002"/>
<path transform="translate(954,1472)" d="m0 0 2 1z" fill="#000002"/>
<path transform="translate(942,1466)" d="m0 0 2 1z" fill="#000002"/>
<path transform="translate(940,1465)" d="m0 0 2 1z" fill="#000002"/>
<path transform="translate(1322,955)" d="m0 0 2 1z" fill="#000002"/>
<path transform="translate(1300,951)" d="m0 0 2 1z" fill="#000002"/>
<path transform="translate(1283,946)" d="m0 0 2 1z" fill="#000002"/>
<path transform="translate(1278,945)" d="m0 0 2 1z" fill="#000002"/>
<path transform="translate(1272,943)" d="m0 0 2 1z" fill="#000002"/>
<path transform="translate(1269,942)" d="m0 0 2 1z" fill="#000002"/>
<path transform="translate(1263,940)" d="m0 0 2 1z" fill="#000002"/>
<path transform="translate(1259,938)" d="m0 0 2 1z" fill="#000002"/>
<path transform="translate(1257,937)" d="m0 0 2 1z" fill="#000002"/>
<path transform="translate(1253,936)" d="m0 0 2 1z" fill="#000002"/>
<path transform="translate(1237,927)" d="m0 0 2 1z" fill="#000002"/>
<path transform="translate(1233,926)" d="m0 0 2 1z" fill="#000002"/>
<path transform="translate(1e3 895)" d="m0 0 2 1z" fill="#000002"/>
<path transform="translate(985,884)" d="m0 0 2 1z" fill="#000002"/>
<path transform="translate(962,872)" d="m0 0 2 1z" fill="#000002"/>
<path transform="translate(956,869)" d="m0 0 2 1z" fill="#000002"/>
<path transform="translate(929,859)" d="m0 0 2 1z" fill="#000002"/>
<path transform="translate(335,859)" d="m0 0 2 1z" fill="#000002"/>
<path transform="translate(306,849)" d="m0 0 2 1z" fill="#000002"/>
<path transform="translate(672,832)" d="m0 0 2 1z" fill="#000002"/>
<path transform="translate(612,828)" d="m0 0 2 1z" fill="#000002"/>
<path transform="translate(590,824)" d="m0 0 2 1z" fill="#000002"/>
<path transform="translate(1108,779)" d="m0 0 2 1z" fill="#000002"/>
<path transform="translate(1098,775)" d="m0 0 2 1z" fill="#000002"/>
<path transform="translate(1082,769)" d="m0 0 2 1z" fill="#000002"/>
<path transform="translate(661,755)" d="m0 0 2 1z" fill="#000002"/>
<path transform="translate(654,750)" d="m0 0 2 1z" fill="#000002"/>
<path transform="translate(645,745)" d="m0 0 2 1z" fill="#000002"/>
<path transform="translate(815,738)" d="m0 0 2 1z" fill="#000002"/>
<path transform="translate(812,737)" d="m0 0 2 1z" fill="#000002"/>
<path transform="translate(1200,661)" d="m0 0 2 1z" fill="#000002"/>
<path transform="translate(1194,660)" d="m0 0 2 1z" fill="#000002"/>
<path transform="translate(1182,656)" d="m0 0 2 1z" fill="#000002"/>
<path transform="translate(1179,655)" d="m0 0 2 1z" fill="#000002"/>
<path transform="translate(1175,654)" d="m0 0 2 1z" fill="#000002"/>
<path transform="translate(1171,653)" d="m0 0 2 1z" fill="#000002"/>
<path transform="translate(1393,644)" d="m0 0 2 1z" fill="#000002"/>
<path transform="translate(1390,643)" d="m0 0 2 1z" fill="#000002"/>
<path transform="translate(1387,642)" d="m0 0 2 1z" fill="#000002"/>
<path transform="translate(1376,638)" d="m0 0 2 1z" fill="#000002"/>
<path transform="translate(1361,632)" d="m0 0 2 1z" fill="#000002"/>
<path transform="translate(1098,611)" d="m0 0 2 1z" fill="#000002"/>
<path transform="translate(303,544)" d="m0 0 2 1z" fill="#000002"/>
<path transform="translate(1335,388)" d="m0 0 2 1z" fill="#000002"/>
<path transform="translate(1316,369)" d="m0 0 2 1z" fill="#000002"/>
<path transform="translate(1310,367)" d="m0 0 2 1z" fill="#000002"/>
<path transform="translate(1293,352)" d="m0 0 2 1z" fill="#000002"/>
<path transform="translate(1290,351)" d="m0 0 2 1z" fill="#000002"/>
<path transform="translate(1288,350)" d="m0 0 2 1z" fill="#000002"/>
<path transform="translate(1281,348)" d="m0 0 2 1z" fill="#000002"/>
<path transform="translate(1277,348)" d="m0 0 2 1z" fill="#000002"/>
<path transform="translate(1274,347)" d="m0 0 2 1z" fill="#000002"/>
<path transform="translate(1263,343)" d="m0 0 2 1z" fill="#000002"/>
<path transform="translate(326,295)" d="m0 0 2 1z" fill="#000002"/>
<path transform="translate(353,280)" d="m0 0 2 1z" fill="#000002"/>
<path transform="translate(355,279)" d="m0 0 2 1z" fill="#000002"/>
<path transform="translate(445,272)" d="m0 0 2 1z" fill="#000002"/>
<path transform="translate(367,272)" d="m0 0 2 1z" fill="#000002"/>
<path transform="translate(1060,170)" d="m0 0 2 1z" fill="#000002"/>
<path transform="translate(1056,168)" d="m0 0 2 1z" fill="#000002"/>
<path transform="translate(1028,155)" d="m0 0 2 1z" fill="#000002"/>
<path transform="translate(1025,154)" d="m0 0 2 1z" fill="#000002"/>
<path transform="translate(1011,150)" d="m0 0 2 1z" fill="#000002"/>
<path transform="translate(749,140)" d="m0 0 2 1z" fill="#000002"/>
<path transform="translate(746,139)" d="m0 0 2 1z" fill="#000002"/>
<path transform="translate(736,135)" d="m0 0 2 1z" fill="#000002"/>
<path transform="translate(722,129)" d="m0 0 2 1z" fill="#000002"/>
<path transform="translate(701,124)" d="m0 0 2 1z" fill="#000002"/>
</svg>
